<?xml version="1.0" standalone="no"?>
<!DOCTYPE svg PUBLIC "-//W3C//DTD SVG 20010904//EN"
 "http://www.w3.org/TR/2001/REC-SVG-20010904/DTD/svg10.dtd">
<svg version="1.0" xmlns="http://www.w3.org/2000/svg"
 width="770.000000pt" height="471.000000pt" viewBox="0 0 770.000000 471.000000"
 preserveAspectRatio="xMidYMid meet">

<g transform="translate(0.000000,471.000000) scale(0.100000,-0.100000)"
fill="#000000" stroke="none">
<path d="M0 2355 l0 -2355 3850 0 3850 0 0 2355 0 2355 -3850 0 -3850 0 0
-2355z m5050 355 l0 -1200 -1205 0 -1205 0 0 1200 0 1200 1205 0 1205 0 0
-1200z m-150 -1450 l0 -50 -429 0 c-255 0 -440 -4 -455 -10 l-26 -10 0 -139
c0 -117 2 -140 16 -145 9 -3 213 -6 455 -6 l439 0 0 -50 0 -51 -507 3 c-470 3
-511 4 -551 22 -77 34 -82 46 -82 228 0 91 4 168 10 179 14 25 82 59 139 69
25 4 259 8 519 9 l472 1 0 -50z m-1779 20 c59 -17 73 -41 78 -131 6 -153 -15
-169 -224 -169 l-145 0 0 -75 0 -75 -45 0 -45 0 0 230 0 230 173 0 c94 0 188
-5 208 -10z m547 -42 l3 -48 -165 0 -166 0 0 -45 0 -45 130 0 130 0 0 -45 0
-45 -130 0 -130 0 0 -90 0 -90 -50 0 -50 0 0 223 c0 123 3 227 7 231 4 3 99 5
212 4 l206 -3 3 -47z m540 -130 c3 -14 -6 -17 -45 -20 l-48 -3 -3 -62 c-2 -47
-7 -63 -17 -63 -20 0 -21 140 -3 158 20 20 112 11 116 -10z m177 -2 c9 -14 15
-37 13 -53 -3 -27 -5 -28 -65 -31 -83 -4 -81 -22 2 -22 58 0 65 -2 65 -20 0
-18 -7 -20 -73 -20 -43 0 -78 5 -85 12 -7 7 -12 39 -12 75 0 74 9 82 87 83 45
0 55 -4 68 -24z m93 -23 l20 -48 21 48 c14 30 28 47 39 47 11 0 27 -18 41 -47
25 -52 25 -52 51 20 6 18 17 27 31 27 16 0 19 -4 14 -17 -4 -10 -18 -48 -32
-85 -15 -41 -31 -68 -40 -68 -8 0 -24 22 -36 50 -12 27 -24 50 -28 50 -3 0
-15 -22 -26 -50 -12 -27 -28 -50 -36 -50 -12 0 -32 43 -73 153 -4 12 -1 17 14
17 14 0 25 -14 40 -47z m380 35 c26 -26 12 -35 -48 -34 -75 1 -80 -18 -5 -22
66 -4 84 -24 63 -70 -12 -24 -19 -27 -71 -30 -59 -3 -87 8 -87 33 0 9 17 11
65 7 45 -3 65 -1 65 7 0 6 -18 11 -46 11 -64 0 -84 13 -84 55 0 22 6 38 18 44
24 14 115 14 130 -1z"/>
<path d="M2703 3863 c-10 -4 -13 -244 -13 -1154 l0 -1149 1155 0 1155 0 0
1155 0 1155 -1142 -1 c-629 0 -1149 -3 -1155 -6z m1727 -253 l0 -70 -109 -54
-108 -55 -12 -48 c-7 -26 -14 -56 -17 -65 -5 -17 15 -18 316 -18 l321 0 -3
-67 -3 -68 -112 -57 -112 -58 -11 -56 c-7 -31 -20 -81 -31 -111 l-18 -55 70
-104 70 -104 -62 -106 -62 -106 -123 7 -123 7 -85 -85 c-75 -74 -85 -89 -81
-113 2 -16 7 -70 10 -121 l6 -92 -94 -55 c-52 -31 -102 -58 -110 -62 -10 -4
-54 19 -118 61 l-102 67 -76 -21 c-42 -11 -92 -24 -111 -29 -32 -7 -39 -16
-93 -120 l-58 -112 -69 0 -70 0 0 315 0 316 -37 -7 c-88 -16 -85 -14 -146
-132 l-58 -112 -69 0 -70 0 0 780 0 780 780 0 780 0 0 -70z"/>
<path d="M3280 2520 l0 -750 48 0 48 0 54 109 53 109 86 21 c47 11 104 26 126
32 40 12 41 12 141 -55 l100 -67 91 53 91 53 -6 123 -5 122 89 90 89 90 124
-2 124 -3 49 80 c26 44 48 86 48 93 0 7 -29 56 -65 110 l-65 97 25 79 c13 43
27 98 31 123 l6 44 114 56 114 55 0 44 0 44 -755 0 -755 0 0 -750z m731 540
c9 0 27 -8 39 -18 22 -18 22 -19 6 -50 -16 -31 -18 -32 -39 -17 -32 22 -73 19
-91 -7 -14 -19 -16 -67 -16 -318 0 -275 -1 -297 -20 -327 -31 -52 -61 -66
-130 -61 -77 6 -98 23 -80 67 15 36 10 35 46 16 39 -20 51 -19 79 10 l25 24 0
296 c0 317 3 340 52 366 35 19 72 28 93 24 11 -3 27 -5 36 -5z"/>
<path d="M3913 3030 c-13 -5 -32 -24 -43 -42 -19 -31 -20 -51 -20 -331 l0
-298 -26 -26 c-22 -22 -32 -25 -75 -21 -59 6 -63 -12 -6 -26 26 -7 46 -5 74 5
65 25 67 35 73 382 6 353 2 340 92 336 56 -3 72 6 34 21 -33 12 -73 12 -103 0z"/>
<path d="M2830 1130 l0 -60 135 0 135 0 0 60 0 60 -135 0 -135 0 0 -60z"/>
<path d="M4270 1075 c0 -11 12 -15 45 -15 33 0 45 4 45 15 0 11 -12 15 -45 15
-33 0 -45 -4 -45 -15z"/>
</g>
</svg>
