<?xml version="1.0" encoding="UTF-8"?>
<svg version="1.1" xmlns="http://www.w3.org/2000/svg" width="459" height="155">
<path d="M0 0 C0.91177002 0.00491455 1.82354004 0.0098291 2.76293945 0.01489258 C15.02600213 0.22401345 26.23123088 1.96343343 36.9375 8.3125 C40.87035182 10.53541625 44.36625229 11.66864646 48.75 12.625 C54.5510664 13.99931748 59.60712367 16.10555483 63.9375 20.3125 C64.67578125 22.50390625 64.67578125 22.50390625 64.9375 24.3125 C59.16371075 23.8313509 54.97890164 22.12782819 49.9375 19.3125 C49.9375 20.3025 49.9375 21.2925 49.9375 22.3125 C51.4225 22.8075 51.4225 22.8075 52.9375 23.3125 C61.15701888 33.85356238 61.89009053 45.43308722 60.9375 58.3125 C59.73004493 67.52208911 55.88490066 74.56532033 50.9375 82.3125 C50.4115625 83.25222656 49.885625 84.19195312 49.34375 85.16015625 C48.8796875 85.87042969 48.415625 86.58070312 47.9375 87.3125 C47.2775 87.3125 46.6175 87.3125 45.9375 87.3125 C45.69 87.93125 45.4425 88.55 45.1875 89.1875 C43.70009631 91.71608627 42.50071991 92.03089004 39.9375 93.3125 C39.6075 93.9725 39.2775 94.6325 38.9375 95.3125 C37.69241604 97.80266793 36.47033204 98.29936718 33.9375 99.3125 C33.9375 99.9725 33.9375 100.6325 33.9375 101.3125 C27.82087264 105.95427702 21.05430382 109.48335083 13.9375 112.3125 C14.5975 113.9625 15.2575 115.6125 15.9375 117.3125 C16.5975 117.3125 17.2575 117.3125 17.9375 117.3125 C17.9375 117.9725 17.9375 118.6325 17.9375 119.3125 C18.5975 119.3125 19.2575 119.3125 19.9375 119.3125 C21.10361392 120.44431645 22.26382011 121.5828143 23.39453125 122.75 C28.77183098 128.19536681 33.98022544 132.16275206 40.9375 135.3125 C42.68951472 136.20438665 44.43945967 137.10034875 46.1875 138 C52.43779641 141.21472252 57.92758774 141.96009319 64.9375 141.3125 C68.62373011 139.69977433 69.69105 138.682175 71.9375 135.3125 C72.17857326 133.02601152 72.17857326 133.02601152 72.0625 130.625 C72.04445313 129.81675781 72.02640625 129.00851563 72.0078125 128.17578125 C71.98460937 127.56089844 71.96140625 126.94601563 71.9375 126.3125 C73.2575 126.3125 74.5775 126.3125 75.9375 126.3125 C78.10837257 131.46832235 79.79574 135.62666003 78.9375 141.3125 C75.61330405 145.84549448 72.43178861 147.42632442 66.9375 148.3125 C49.16646437 148.28481926 32.73492235 139.98466729 18.9375 129.3125 C18.00421875 128.60480469 17.0709375 127.89710938 16.109375 127.16796875 C10.90744171 123.13574392 10.90744171 123.13574392 8.9375 121.3125 C8.9375 120.6525 8.9375 119.9925 8.9375 119.3125 C8.2775 119.3125 7.6175 119.3125 6.9375 119.3125 C6.9375 118.6525 6.9375 117.9925 6.9375 117.3125 C6.2775 117.3125 5.6175 117.3125 4.9375 117.3125 C4.6075 116.6525 4.2775 115.9925 3.9375 115.3125 C2.90302734 115.42078125 2.90302734 115.42078125 1.84765625 115.53125 C-1.12037345 115.82438874 -4.08954224 116.07481924 -7.0625 116.3125 C-7.76761719 116.38082031 -8.47273438 116.44914062 -9.19921875 116.51953125 C-14.54702249 116.8032065 -19.55975341 115.72319972 -24.75 114.5625 C-25.83788818 114.32720581 -25.83788818 114.32720581 -26.94775391 114.0871582 C-36.0140423 111.91686988 -42.43572763 106.1481965 -47.9375 98.8125 C-52.25580296 89.21627119 -51.05820856 75.14530418 -48.0625 65.3125 C-45.87055449 60.39637939 -43.20146005 55.88325148 -40.04296875 51.52734375 C-36.30384835 46.60017284 -36.30384835 46.60017284 -35.06640625 40.75 C-35.43959671 39.07977697 -35.8714169 37.42161977 -36.359375 35.78125 C-38.40491163 28.59914362 -37.42365901 20.92754699 -34.0625 14.3125 C-28.58122502 6.14859044 -21.94600143 2.72247038 -12.546875 0.72265625 C-8.36350721 0.03200591 -4.23241041 -0.02724982 0 0 Z M-25.0625 15.3125 C-29.26801868 22.32593296 -29.44676596 28.39810985 -28.0625 36.3125 C-27.5778125 35.94898437 -27.093125 35.58546875 -26.59375 35.2109375 C-25.17083181 34.14374886 -23.7462061 33.07883486 -22.3203125 32.015625 C-20.948009 30.98046181 -19.58558408 29.931786 -18.2421875 28.859375 C-6.67116194 19.74280941 5.56744181 14.20010035 19.9375 11.3125 C14.39892305 5.77392305 5.69149154 5.97932195 -1.6875 5.875 C-2.48663818 5.8529248 -3.28577637 5.83084961 -4.10913086 5.80810547 C-12.46708658 5.83741046 -19.28030196 9.26747477 -25.0625 15.3125 Z M7.9375 20.3125 C7.09574219 20.63476562 6.25398438 20.95703125 5.38671875 21.2890625 C0.19046952 23.41186414 -4.18398406 26.31339271 -8.703125 29.62890625 C-11.0625 31.3125 -11.0625 31.3125 -13.859375 32.90234375 C-14.58640625 33.36769531 -15.3134375 33.83304688 -16.0625 34.3125 C-16.0625 34.9725 -16.0625 35.6325 -16.0625 36.3125 C-16.7225 36.3125 -17.3825 36.3125 -18.0625 36.3125 C-19.74982277 38.29510426 -21.41616057 40.2957342 -23.0625 42.3125 C-23.7225 42.6425 -24.3825 42.9725 -25.0625 43.3125 C-24.60551649 47.88233507 -23.25712204 51.15577784 -21.15234375 55.140625 C-20.05411592 57.32920805 -19.17705359 59.52239359 -18.3125 61.8125 C-11.9835009 77.93166958 -3.40186746 94.2239748 7.9375 107.3125 C19.08537327 104.29709166 26.24238875 100.42358772 34.6171875 92.45703125 C36.9375 90.3125 36.9375 90.3125 38.9375 89.3125 C42.21314789 84.13194208 42.21314789 84.13194208 43.9375 78.3125 C44.5975 78.3125 45.2575 78.3125 45.9375 78.3125 C52.33560957 63.39171775 54.56391351 51.59406989 49.12109375 35.96875 C46.61968652 30.31534531 42.42589053 25.5094366 37.9375 21.3125 C37.2775 21.3125 36.6175 21.3125 35.9375 21.3125 C35.9375 20.6525 35.9375 19.9925 35.9375 19.3125 C32.29805758 16.21897394 29.26173709 14.60363839 24.40234375 14.85546875 C18.68781256 15.91505694 13.31766553 18.17033973 7.9375 20.3125 Z M-32.0625 53.3125 C-39.27151865 63.82791067 -42.23589497 73.59140854 -41.0625 86.3125 C-39.83043109 92.80415718 -37.20881886 98.08624994 -32.0625 102.3125 C-22.94144919 108.02467323 -13.78753697 110.77880596 -3.0625 110.3125 C-3.04686098 105.96886528 -3.04686098 105.96886528 -5.75 103.125 C-8.0617757 100.60872648 -9.83873389 98.16327469 -11.45703125 95.15625 C-11.8847583 94.36645752 -12.31248535 93.57666504 -12.75317383 92.76293945 C-13.18525146 91.95429443 -13.6173291 91.14564941 -14.0625 90.3125 C-14.47717529 89.54832764 -14.89185059 88.78415527 -15.3190918 87.99682617 C-21.43315179 76.69908053 -27.05993272 65.55249368 -31.0625 53.3125 C-31.3925 53.3125 -31.7225 53.3125 -32.0625 53.3125 Z " fill="#B3CD0F" transform="translate(95.0625,2.6875)"/>
<path d="M0 0 C0.91177002 0.00491455 1.82354004 0.0098291 2.76293945 0.01489258 C15.02600213 0.22401345 26.23123088 1.96343343 36.9375 8.3125 C40.87035182 10.53541625 44.36625229 11.66864646 48.75 12.625 C54.5510664 13.99931748 59.60712367 16.10555483 63.9375 20.3125 C64.67578125 22.50390625 64.67578125 22.50390625 64.9375 24.3125 C59.16371075 23.8313509 54.97890164 22.12782819 49.9375 19.3125 C49.9375 20.3025 49.9375 21.2925 49.9375 22.3125 C51.4225 22.8075 51.4225 22.8075 52.9375 23.3125 C61.15701888 33.85356238 61.89009053 45.43308722 60.9375 58.3125 C59.73004493 67.52208911 55.88490066 74.56532033 50.9375 82.3125 C50.4115625 83.25222656 49.885625 84.19195312 49.34375 85.16015625 C48.8796875 85.87042969 48.415625 86.58070312 47.9375 87.3125 C47.2775 87.3125 46.6175 87.3125 45.9375 87.3125 C45.69 87.93125 45.4425 88.55 45.1875 89.1875 C43.70009631 91.71608627 42.50071991 92.03089004 39.9375 93.3125 C39.6075 93.9725 39.2775 94.6325 38.9375 95.3125 C37.69241604 97.80266793 36.47033204 98.29936718 33.9375 99.3125 C33.9375 99.9725 33.9375 100.6325 33.9375 101.3125 C27.24880632 106.44869225 19.67702431 110.0639956 11.9375 113.3125 C11.6075 111.9925 11.2775 110.6725 10.9375 109.3125 C9.6175 109.3125 8.2975 109.3125 6.9375 109.3125 C6.2775 107.3325 5.6175 105.3525 4.9375 103.3125 C5.9275 104.3025 6.9175 105.2925 7.9375 106.3125 C19.13148881 103.28461778 26.25771369 99.41613806 34.6171875 91.359375 C36.9375 89.3125 36.9375 89.3125 38.9375 89.3125 C39.02 88.796875 39.1025 88.28125 39.1875 87.75 C40.25890225 84.26794268 42.07273605 81.44049115 43.9375 78.3125 C44.5975 78.3125 45.2575 78.3125 45.9375 78.3125 C46.123125 77.51392578 46.123125 77.51392578 46.3125 76.69921875 C47.07175627 73.79980887 48.01120294 70.97540676 48.9375 68.125 C52.58289907 56.10720087 52.54531612 45.69686264 47.1875 33.9375 C44.58894257 29.27419732 40.78489421 23.73619711 35.9375 21.3125 C35.9375 20.6525 35.9375 19.9925 35.9375 19.3125 C35.31875 19.003125 34.7 18.69375 34.0625 18.375 C32.6875 17.6875 31.3125 17 29.9375 16.3125 C21.92651828 15.38815596 15.29444025 18.38326947 7.9375 21.3125 C7.09574219 21.63476562 6.25398438 21.95703125 5.38671875 22.2890625 C0.16156125 24.42367391 -4.19007272 27.34914756 -8.703125 30.7265625 C-11.08665327 32.32873547 -13.36600299 33.34673334 -16.0625 34.3125 C-16.0625 34.9725 -16.0625 35.6325 -16.0625 36.3125 C-16.7225 36.3125 -17.3825 36.3125 -18.0625 36.3125 C-18.35125 36.951875 -18.64 37.59125 -18.9375 38.25 C-20.0625 40.3125 -20.0625 40.3125 -22.0625 41.3125 C-22.0625 40.6525 -22.0625 39.9925 -22.0625 39.3125 C-23.0525 38.9825 -24.0425 38.6525 -25.0625 38.3125 C-24.0725 38.3125 -23.0825 38.3125 -22.0625 38.3125 C-22.0625 37.6525 -22.0625 36.9925 -22.0625 36.3125 C-25.02425123 36.92527612 -26.44308783 37.56622522 -29.0625 39.3125 C-29.0625 37.6625 -29.0625 36.0125 -29.0625 34.3125 C-30.3825 34.9725 -31.7025 35.6325 -33.0625 36.3125 C-32.7325 38.9525 -32.4025 41.5925 -32.0625 44.3125 C-33.0525 43.9825 -34.0425 43.6525 -35.0625 43.3125 C-37.41772368 33.42897205 -38.83276405 23.70078562 -34.0625 14.3125 C-28.58122502 6.14859044 -21.94600143 2.72247038 -12.546875 0.72265625 C-8.36350721 0.03200591 -4.23241041 -0.02724982 0 0 Z M-25.0625 15.3125 C-29.26801868 22.32593296 -29.44676596 28.39810985 -28.0625 36.3125 C-27.5778125 35.94898437 -27.093125 35.58546875 -26.59375 35.2109375 C-25.17083181 34.14374886 -23.7462061 33.07883486 -22.3203125 32.015625 C-20.948009 30.98046181 -19.58558408 29.931786 -18.2421875 28.859375 C-6.67116194 19.74280941 5.56744181 14.20010035 19.9375 11.3125 C14.39892305 5.77392305 5.69149154 5.97932195 -1.6875 5.875 C-2.48663818 5.8529248 -3.28577637 5.83084961 -4.10913086 5.80810547 C-12.46708658 5.83741046 -19.28030196 9.26747477 -25.0625 15.3125 Z " fill="#B6D110" transform="translate(95.0625,2.6875)"/>
<path d="M0 0 C2 2 2 2 2.3125 5.6875 C2.15496191 11.89900181 -0.72508419 16.85370373 -4 22 C-2.68 22.66 -1.36 23.32 0 24 C-0.495 25.485 -0.495 25.485 -1 27 C-15.355 27.495 -15.355 27.495 -30 28 C-30.66 29.98 -31.32 31.96 -32 34 C-32.53625 35.11375 -33.0725 36.2275 -33.625 37.375 C-35.24622618 41.64914175 -35.23800958 44.47781794 -35 49 C-31.39955989 50.80022005 -27.74323656 49.98971838 -24 49 C-18.73054628 46.39043424 -13.78411319 43.35919798 -10.125 38.6875 C-7.87350647 35.84002288 -6.43965761 34.98275932 -3 34 C-2.67 34.66 -2.34 35.32 -2 36 C-6.79437557 46.8394578 -17.60354672 51.49114392 -28 56 C-31.85272298 57.03658021 -35.6426009 57.25598577 -39.625 57.375 C-40.75164062 57.42398438 -41.87828125 57.47296875 -43.0390625 57.5234375 C-46 57 -46 57 -47.8359375 54.6015625 C-48.41214844 53.31378906 -48.41214844 53.31378906 -49 52 C-49.33 51.34 -49.66 50.68 -50 50 C-55.9225274 50.98063635 -59.28775536 52.20721773 -64 56 C-72.03419053 59.52268354 -83.51440037 61.75886491 -92 59 C-91.69238119 56.12889107 -91.03618633 55.03731715 -89 52.9375 C-80.85759217 47.67886161 -71.41981121 47.05491957 -62 46 C-65.97663258 41.15274372 -69.63074323 37.34087088 -75 34 C-78.29193564 31.5977767 -79.31985863 29.67596456 -80 25.75 C-80.39003694 19.81168758 -78.31388464 15.963772 -74.734375 11.37890625 C-70.86783501 7.46149073 -66.10637836 5.58521872 -61.0625 3.625 C-60.39444336 3.36187012 -59.72638672 3.09874023 -59.03808594 2.82763672 C-54.18385908 1.0679499 -50.16189901 0.63050509 -45 1 C-42.4375 2.5625 -42.4375 2.5625 -41 5 C-41 9.02277646 -41.6524548 11.40788596 -43.6875 14.875 C-46.46290515 17.4253723 -48.29258749 17.74722187 -52 18 C-52 15.36 -52 12.72 -52 10 C-54.34107238 8.52599147 -55.58535672 7.95635334 -58.375 8.25 C-59.24125 8.4975 -60.1075 8.745 -61 9 C-62.051875 9.185625 -63.10375 9.37125 -64.1875 9.5625 C-67.39615511 10.80972785 -67.39615511 10.80972785 -68.4375 14.6875 C-69.13888703 18.657206 -69.09685598 22.0826572 -68 26 C-66.33725801 27.25124046 -66.33725801 27.25124046 -64 28 C-62.72942241 28.80160903 -61.4805087 29.63814573 -60.25 30.5 C-59.63640625 30.9228125 -59.0228125 31.345625 -58.390625 31.78125 C-57.93171875 32.1834375 -57.4728125 32.585625 -57 33 C-57 33.66 -57 34.32 -57 35 C-56.34 35 -55.68 35 -55 35 C-54.80508548 36.45736087 -54.61930642 37.91594593 -54.4375 39.375 C-54.28087891 40.59316406 -54.28087891 40.59316406 -54.12109375 41.8359375 C-54 44 -54 44 -55 46 C-53.02 46 -51.04 46 -49 46 C-48.76216797 45.09121094 -48.76216797 45.09121094 -48.51953125 44.1640625 C-46.71359413 37.67865295 -44.18759847 31.92162562 -41 26 C-40.34 26 -39.68 26 -39 26 C-38.92265625 25.12730469 -38.8453125 24.25460938 -38.765625 23.35546875 C-37.85694151 19.37302427 -36.36918328 17.42169605 -33.75 14.3125 C-32.98171875 13.38050781 -32.2134375 12.44851562 -31.421875 11.48828125 C-27.55928079 7.5197772 -24.11547628 5.75334922 -18.6875 4.8125 C-17.36298828 4.57466797 -17.36298828 4.57466797 -16.01171875 4.33203125 C-15.01591797 4.16767578 -15.01591797 4.16767578 -14 4 C-13.505 5.485 -13.505 5.485 -13 7 C-13.680625 7.45375 -14.36125 7.9075 -15.0625 8.375 C-19.212905 12.08387256 -21.89970045 16.37994577 -25 21 C-20.71 20.67 -16.42 20.34 -12 20 C-9.92373687 15.37559575 -8.29977048 10.8991349 -7 6 C-8.32 5.67 -9.64 5.34 -11 5 C-10.67 3.68 -10.34 2.36 -10 1 C-6.61401171 -0.04184255 -3.53318313 -0.23042499 0 0 Z " fill="#B7D211" transform="translate(350,59)"/>
<path d="M0 0 C-0.56695835 4.65465803 -1.87565543 8.23819308 -3.9375 12.4375 C-6.14085949 16.93625119 -7.7374058 21.17530427 -9 26 C-8.58637207 25.57589844 -8.17274414 25.15179688 -7.74658203 24.71484375 C-5.87792079 22.80472667 -4.00160497 20.90231189 -2.125 19 C-1.14853516 17.99839844 -1.14853516 17.99839844 -0.15234375 16.9765625 C0.47285156 16.34492187 1.09804688 15.71328125 1.7421875 15.0625 C2.3182373 14.47597656 2.89428711 13.88945313 3.48779297 13.28515625 C5 12 5 12 7 12 C7 11.34 7 10.68 7 10 C11.92925623 5.78610069 16.51536373 3.27594197 23 3 C23.96475781 8.10409032 23.89299926 12.0030474 22.75 17.0625 C22.49734375 18.22910156 22.2446875 19.39570312 21.984375 20.59765625 C21.00054765 23.99810713 19.68311495 26.8938019 18 30 C18.78375 29.175 19.5675 28.35 20.375 27.5 C23 25 23 25 25 25 C25 24.34 25 23.68 25 23 C25.66 23 26.32 23 27 23 C27 22.34 27 21.68 27 21 C27.66 21 28.32 21 29 21 C29 20.34 29 19.68 29 19 C29.66 19 30.32 19 31 19 C31.226875 18.46375 31.45375 17.9275 31.6875 17.375 C33.47941502 14.13248711 35.3752321 11.6247679 38 9 C41.1875 8.4375 41.1875 8.4375 44 9 C46 12 46 12 45.828125 14.15625 C45.54195312 15.31640625 45.54195312 15.31640625 45.25 16.5 C44.97929687 17.66015625 44.97929687 17.66015625 44.703125 18.84375 C44 21 44 21 42 24 C39.83030042 32.10782473 39.91580199 39.73665304 41 48 C47.98262148 46.3808414 52.61210997 43.28592433 58.03125 38.64453125 C60 37 60 37 61 37 C60.38909774 43.47556391 60.38909774 43.47556391 58.5625 45.9375 C57 47 57 47 55 47 C55 47.66 55 48.32 55 49 C50.54332262 53.19451988 46.49164912 54.78143429 40.4375 55.3125 C36.65943914 54.96903992 34.93698609 54.36590546 32 52 C29.00637137 47.97731153 28.64138817 45.0885605 28.75 40.125 C28.78867187 38.28421875 28.78867187 38.28421875 28.828125 36.40625 C29.00713682 32.85856111 29.33604333 29.4857725 30 26 C29.54625 26.66 29.0925 27.32 28.625 28 C28.08875 28.66 27.5525 29.32 27 30 C26.34 30 25.68 30 25 30 C25 30.66 25 31.32 25 32 C24.34 32 23.68 32 23 32 C22.67 32.99 22.34 33.98 22 35 C21.0925 35.70125 20.185 36.4025 19.25 37.125 C16.49661385 39.28837483 15.09160384 41.38913794 13.5 44.5 C11.22389019 48.86983903 9.15562176 51.31616094 5 54 C2.125 54.3125 2.125 54.3125 0 54 C0.3398866 44.31323204 4.15478622 35.37429269 8.65234375 26.87890625 C10.01841231 23.96066703 10.4718187 21.81708327 10.6875 18.625 C10.75324219 17.75101563 10.81898438 16.87703125 10.88671875 15.9765625 C10.92410156 15.32429688 10.96148437 14.67203125 11 14 C10.071875 14.7425 10.071875 14.7425 9.125 15.5 C7 17 7 17 5 17 C5 17.66 5 18.32 5 19 C4.34 19 3.68 19 3 19 C2.7525 19.78375 2.505 20.5675 2.25 21.375 C0.79075497 24.43941457 -0.05014956 24.61725761 -3 26 C-3.27328125 26.55429688 -3.5465625 27.10859375 -3.828125 27.6796875 C-5.40064046 30.79326812 -7.57497792 33.35796314 -9.75 36.0625 C-13.08412243 40.24950976 -15.78797757 44.27664684 -18.125 49.125 C-20.000181 52.78479928 -21.25546279 54.65817923 -25.125 56.1875 C-29 57 -29 57 -33 57 C-31.31875211 51.4655137 -28.96363172 46.31085415 -26.5625 41.0625 C-19.65725005 27.10767559 -19.65725005 27.10767559 -17 12 C-13.67349763 5.29981083 -8.42818679 -2.97465416 0 0 Z " fill="#B4CE10" transform="translate(378,60)"/>
<path d="M0 0 C0.80566406 0.00322266 1.61132812 0.00644531 2.44140625 0.00976562 C3.70404297 0.02233398 3.70404297 0.02233398 4.9921875 0.03515625 C5.84167969 0.03966797 6.69117188 0.04417969 7.56640625 0.04882812 C9.66669659 0.06062751 11.7669508 0.07856319 13.8671875 0.09765625 C14.02385147 4.01985064 13.88392152 6.77207361 12.1171875 10.28515625 C6.85462029 21.38879982 2.85643179 32.66301042 3.8671875 45.09765625 C4.1971875 45.75765625 4.5271875 46.41765625 4.8671875 47.09765625 C10.91163468 47.09765625 13.81475204 43.77934975 17.9140625 39.8125 C19.8671875 38.09765625 19.8671875 38.09765625 21.8671875 38.09765625 C22.1953125 40.2734375 22.1953125 40.2734375 21.8671875 43.09765625 C19.6015625 45.703125 19.6015625 45.703125 16.6171875 48.28515625 C15.64265625 49.14496094 14.668125 50.00476563 13.6640625 50.890625 C8.98470524 54.58313457 5.89529254 55.54809271 -0.0078125 55.421875 C-2.1328125 55.09765625 -2.1328125 55.09765625 -4.6328125 53.28515625 C-7.56566911 49.00807369 -7.25185281 44.89005244 -7.1953125 39.91015625 C-7.19080078 39.16056641 -7.18628906 38.41097656 -7.18164062 37.63867188 C-7.16987604 35.79163242 -7.15194115 33.94463412 -7.1328125 32.09765625 C-7.73754395 32.75568237 -7.73754395 32.75568237 -8.35449219 33.42700195 C-10.19384669 35.4245663 -12.03826522 37.41738642 -13.8828125 39.41015625 C-14.51703125 40.10044922 -15.15125 40.79074219 -15.8046875 41.50195312 C-16.4234375 42.16904297 -17.0421875 42.83613281 -17.6796875 43.5234375 C-18.24526367 44.13614502 -18.81083984 44.74885254 -19.39355469 45.38012695 C-24.17076559 50.09765625 -24.17076559 50.09765625 -27.1328125 50.09765625 C-27.1328125 50.75765625 -27.1328125 51.41765625 -27.1328125 52.09765625 C-31.75478556 54.31620332 -34.90105413 55.48046784 -40.1328125 55.09765625 C-42.67280854 50.61297574 -42.28756354 46.99878708 -41.1328125 42.09765625 C-39.1695144 36.02027308 -36.98975002 29.81153129 -34.1328125 24.09765625 C-33.4728125 24.09765625 -32.8128125 24.09765625 -32.1328125 24.09765625 C-32.02582031 23.53046875 -31.91882813 22.96328125 -31.80859375 22.37890625 C-30.13209901 16.71952515 -25.66137626 10.81754791 -21.1328125 7.09765625 C-20.4728125 7.09765625 -19.8128125 7.09765625 -19.1328125 7.09765625 C-19.1328125 6.43765625 -19.1328125 5.77765625 -19.1328125 5.09765625 C-18.21757812 4.82050781 -17.30234375 4.54335937 -16.359375 4.2578125 C-14.57660156 3.71447266 -14.57660156 3.71447266 -12.7578125 3.16015625 C-11.57445312 2.80050781 -10.39109375 2.44085938 -9.171875 2.0703125 C-2.64498872 -0.01862668 -2.64498872 -0.01862668 0 0 Z M-5.8828125 6.59765625 C-19.02667787 13.67512222 -25.81014266 29.08499074 -29.9453125 42.78515625 C-30.34931818 44.22038086 -30.74844219 45.65704883 -31.1328125 47.09765625 C-17.88554823 39.94413355 -10.4018878 29.1873755 -3.640625 16.0078125 C-2.1328125 13.09765625 -2.1328125 13.09765625 -0.4375 10.34375 C1.03461438 8.24234253 1.03461438 8.24234253 0.8671875 6.09765625 C-2.51875833 4.96900764 -2.85626398 5.09648818 -5.8828125 6.59765625 Z " fill="#BEDB0C" transform="translate(201.1328125,60.90234375)"/>
<path d="M0 0 C0.74636719 -0.01675781 1.49273437 -0.03351562 2.26171875 -0.05078125 C4.86258277 0.40994323 5.73067119 1.22959498 7.3125 3.3125 C7.93020559 7.28346449 7.4718197 9.02682329 5.5 12.5625 C3.3125 15.3125 3.3125 15.3125 0.3125 17.3125 C-1.0075 17.3125 -2.3275 17.3125 -3.6875 17.3125 C-3.460625 16.219375 -3.23375 15.12625 -3 14 C-2.36625832 10.48109035 -2.36625832 10.48109035 -3.75 8.3125 C-6.67954835 6.80047505 -8.54134475 7.51053886 -11.6875 8.3125 C-12.76 8.56 -13.8325 8.8075 -14.9375 9.0625 C-17.82505819 10.06476449 -17.82505819 10.06476449 -19.0625 12.5625 C-20.15678158 17.37733893 -20.29746088 21.04845564 -17.6875 25.3125 C-15.89203178 26.92305142 -15.89203178 26.92305142 -13.8125 28.3125 C-13.10351562 28.83199219 -12.39453125 29.35148437 -11.6640625 29.88671875 C-10.68566406 30.59248047 -10.68566406 30.59248047 -9.6875 31.3125 C-7.1875 33.125 -7.1875 33.125 -5.6875 35.3125 C-5.37129581 38.34279011 -5.45412364 41.27860736 -5.6875 44.3125 C-3.7075 44.9725 -1.7275 45.6325 0.3125 46.3125 C0.3125 46.9725 0.3125 47.6325 0.3125 48.3125 C-0.3165625 48.47105469 -0.945625 48.62960938 -1.59375 48.79296875 C-5.98600162 49.99025421 -9.72183335 51.13883552 -13.4375 53.8125 C-22.01627702 59.53168468 -32.80498002 59.98647787 -42.6875 58.3125 C-42.19313525 53.76434426 -42.19313525 53.76434426 -40.03515625 51.8359375 C-31.66392232 47.62885583 -22.87490759 46.54349252 -13.6875 45.3125 C-16.25742259 41.06498905 -18.43978304 38.48872025 -22.6875 35.9375 C-27.41909968 32.77145177 -30.22901957 29.89377158 -31.6875 24.3125 C-31.8954316 19.42610734 -29.62737541 15.49885947 -26.89453125 11.5625 C-20.57391215 5.1188246 -9.0198043 0.04722411 0 0 Z " fill="#B3CC11" transform="translate(259.6875,59.6875)"/>
<path d="M0 0 C0.99 0.66 1.98 1.32 3 2 C3 2.66 3 3.32 3 4 C3.66 4 4.32 4 5 4 C5 4.66 5 5.32 5 6 C5.66 6 6.32 6 7 6 C8.16611392 7.13181645 9.32632011 8.2703143 10.45703125 9.4375 C15.83433098 14.88286681 21.04272544 18.85025206 28 22 C29.75201472 22.89188665 31.50195967 23.78784875 33.25 24.6875 C39.50029641 27.90222252 44.99008774 28.64759319 52 28 C55.68623011 26.38727433 56.75355 25.369675 59 22 C59.24107326 19.71351152 59.24107326 19.71351152 59.125 17.3125 C59.10695312 16.50425781 59.08890625 15.69601563 59.0703125 14.86328125 C59.04710937 14.24839844 59.02390625 13.63351563 59 13 C60.32 13 61.64 13 63 13 C65.17087257 18.15582235 66.85824 22.31416003 66 28 C62.67580405 32.53299448 59.49428861 34.11382442 54 35 C36.22896437 34.97231926 19.79742235 26.67216729 6 16 C5.06671875 15.29230469 4.1334375 14.58460938 3.171875 13.85546875 C-2.03005829 9.82324392 -2.03005829 9.82324392 -4 8 C-4 7.34 -4 6.68 -4 6 C-2.35 6 -0.7 6 1 6 C0.67 4.02 0.34 2.04 0 0 Z " fill="#B6CF14" transform="translate(108,116)"/>
<path d="M0 0 C1.37224731 0.00580078 1.37224731 0.00580078 2.7722168 0.01171875 C9.58012941 0.09846677 16.0390382 0.7083277 22.6875 2.25 C23.1825 4.725 23.1825 4.725 23.6875 7.25 C22.66914062 7.22905273 21.65078125 7.20810547 20.6015625 7.18652344 C16.79230024 7.11365316 12.9830985 7.0680312 9.17333984 7.03027344 C7.5303305 7.01026429 5.88739141 6.98304787 4.24462891 6.94824219 C1.87124212 6.89924695 -0.50119649 6.87692496 -2.875 6.859375 C-3.59929199 6.83872986 -4.32358398 6.81808472 -5.06982422 6.79681396 C-12.64787957 6.7935438 -18.82534222 10.08561621 -24.3125 15.25 C-25.62415257 17.36660427 -25.62415257 17.36660427 -26.3125 19.25 C-26.9725 19.25 -27.6325 19.25 -28.3125 19.25 C-29.7975 24.695 -29.7975 24.695 -31.3125 30.25 C-32.6325 30.58 -33.9525 30.91 -35.3125 31.25 C-35.56087369 23.42622866 -35.72375261 15.85598498 -30.6875 9.4375 C-22.60047264 0.97843022 -11.11614515 -0.11423142 0 0 Z " fill="#B2C91B" transform="translate(95.3125,2.75)"/>
<path d="M0 0 C2.76953908 4.15430862 2.76953908 4.15430862 3 7 C1.7421875 10.03125 1.7421875 10.03125 -0.125 13.5 C-0.7780636 14.74044316 -1.42774952 15.98266988 -2.07421875 17.2265625 C-2.3995459 17.85208008 -2.72487305 18.47759766 -3.06005859 19.12207031 C-5.31362048 23.62451136 -7.14162144 28.32407976 -9 33 C-7.02 32.34 -5.04 31.68 -3 31 C-3.0625 33.3125 -3.0625 33.3125 -4 36 C-8.42048711 38.51361032 -11.94351834 39.36998646 -17 39 C-19.53999604 34.51531949 -19.15475104 30.90113083 -18 26 C-16.0367019 19.92261683 -13.85693752 13.71387504 -11 8 C-10.34 8 -9.68 8 -9 8 C-9 7.34 -9 6.68 -9 6 C-8.01 6 -7.02 6 -6 6 C-6 5.34 -6 4.68 -6 4 C-4.68 4.33 -3.36 4.66 -2 5 C-2 3.68 -2 2.36 -2 1 C-1.34 0.67 -0.68 0.34 0 0 Z " fill="#BEDB0C" transform="translate(178,77)"/>
<path d="M0 0 C1.4375 2.4375 1.4375 2.4375 1.4375 5.875 C0.34794186 9.75655088 -0.59927924 11.71454039 -3.5625 14.4375 C-6.8125 15.25 -6.8125 15.25 -9.5625 15.4375 C-9.5625 12.7975 -9.5625 10.1575 -9.5625 7.4375 C-11.90357238 5.96349147 -13.14785672 5.39385334 -15.9375 5.6875 C-17.236875 6.05875 -17.236875 6.05875 -18.5625 6.4375 C-19.614375 6.64375 -20.66625 6.85 -21.75 7.0625 C-24.95796043 8.23345044 -24.95796043 8.23345044 -25.9375 12.0625 C-26.14375 13.17625 -26.35 14.29 -26.5625 15.4375 C-27.5525 15.1075 -28.5425 14.7775 -29.5625 14.4375 C-29.5625 13.7775 -29.5625 13.1175 -29.5625 12.4375 C-30.5525 12.7675 -31.5425 13.0975 -32.5625 13.4375 C-32.8925 14.4275 -33.2225 15.4175 -33.5625 16.4375 C-34.2225 16.4375 -34.8825 16.4375 -35.5625 16.4375 C-35.07131728 12.18058309 -32.67444826 9.20051127 -29.5625 6.4375 C-21.8247755 1.63011794 -8.78385139 -5.35600694 0 0 Z " fill="#B6CE14" transform="translate(307.5625,61.5625)"/>
<path d="M0 0 C0.33 0.66 0.66 1.32 1 2 C1.66 2 2.32 2 3 2 C2.5020163 5.73487777 2.12508244 7.81237635 0 11 C0 11.99 0 12.98 0 14 C1.98 13.67 3.96 13.34 6 13 C5.57994074 16.64051356 3.75950777 18.60705155 1.390625 21.2890625 C-0.11728422 23.14429913 -1.28985072 25.06468255 -2.5 27.125 C-4.57767091 30.51420068 -6.52822537 32.91693522 -10 35 C-12.8125 35.25 -12.8125 35.25 -15 35 C-14.58846263 30.02906176 -14.20399168 25.55491614 -12 21 C-11.01 21 -10.02 21 -9 21 C-8.95875 20.319375 -8.9175 19.63875 -8.875 18.9375 C-7.79072582 15.29743668 -5.94439755 13.3784224 -3.375 10.6484375 C-1.77554129 8.9346793 -1.77554129 8.9346793 -1 6 C-1.66 6 -2.32 6 -3 6 C-2.625 3.5625 -2.625 3.5625 -2 1 C-1.34 0.67 -0.68 0.34 0 0 Z " fill="#C3E304" transform="translate(393,79)"/>
<path d="M0 0 C1.32 0.33 2.64 0.66 4 1 C3.21718695 2.33855056 2.42348123 3.67073644 1.625 5 C1.18414062 5.7425 0.74328125 6.485 0.2890625 7.25 C-0.13632813 7.8275 -0.56171875 8.405 -1 9 C-1.66 9 -2.32 9 -3 9 C-3.2475 9.61875 -3.495 10.2375 -3.75 10.875 C-5.23740369 13.40358627 -6.43678009 13.71839004 -9 15 C-9.33 15.66 -9.66 16.32 -10 17 C-11.24508396 19.49016793 -12.46716796 19.98686718 -15 21 C-15 21.66 -15 22.32 -15 23 C-21.68869368 28.13619225 -29.26047569 31.7514956 -37 35 C-37.33 33.68 -37.66 32.36 -38 31 C-39.32 31 -40.64 31 -42 31 C-42.66 29.02 -43.32 27.04 -44 25 C-43.01 25.99 -42.02 26.98 -41 28 C-29.80601119 24.97211778 -22.67978631 21.10363806 -14.3203125 13.046875 C-12 11 -12 11 -10 11 C-9.814375 10.071875 -9.814375 10.071875 -9.625 9.125 C-9 7 -9 7 -7 5 C-6.505 5.495 -6.505 5.495 -6 6 C-3.49034386 5.29660434 -3.49034386 5.29660434 -1 4 C-0.11306697 1.95894361 -0.11306697 1.95894361 0 0 Z " fill="#B1C71A" transform="translate(144,81)"/>
<path d="M0 0 C0.66 0.33 1.32 0.66 2 1 C2 1.99 2 2.98 2 4 C2.66 4 3.32 4 4 4 C4.8039534 9.28312232 3.81966273 11.71300512 0.6875 16.0625 C0.04039062 16.91070312 -0.60671875 17.75890625 -1.2734375 18.6328125 C-3.17754136 21.05120015 -3.17754136 21.05120015 -4.4375 24.4375 C-6.4572321 27.74986065 -8.37928887 28.35259395 -11.96484375 29.5546875 C-14 30 -14 30 -18 30 C-14.62 19.08 -14.62 19.08 -10 16 C-9.505 14.824375 -9.01 13.64875 -8.5 12.4375 C-8.005 11.303125 -7.51 10.16875 -7 9 C-6.01 8.67 -5.02 8.34 -4 8 C-3.63451555 6.67511887 -3.3062434 5.33981486 -3 4 C-1.4375 1.75 -1.4375 1.75 0 0 Z " fill="#C3E10A" transform="translate(363,87)"/>
<path d="M0 0 C1.65 0.33 3.3 0.66 5 1 C5.19335938 1.66386719 5.38671875 2.32773438 5.5859375 3.01171875 C7.44188336 9.63560983 7.44188336 9.63560983 10 16 C10.66 16.33 11.32 16.66 12 17 C12.625 20.0625 12.625 20.0625 13 23 C11.375 23.75 11.375 23.75 9 24 C6.0625 22.25 6.0625 22.25 3 20 C2.113125 19.525625 1.22625 19.05125 0.3125 18.5625 C-2.61019601 16.5877054 -3.70766977 15.3026217 -5 12 C-4.94351022 8.94441648 -4.5432824 6.00441714 -4 3 C-3.01 3.33 -2.02 3.66 -1 4 C-0.67 2.68 -0.34 1.36 0 0 Z " fill="#BBD80E" transform="translate(275,74)"/>
<path d="M0 0 C0.83144531 0.00902344 1.66289062 0.01804687 2.51953125 0.02734375 C4.55481337 0.0507378 6.58994564 0.08660275 8.625 0.125 C8.955 1.115 9.285 2.105 9.625 3.125 C8.305 3.125 6.985 3.125 5.625 3.125 C5.625 4.445 5.625 5.765 5.625 7.125 C-2.50984989 10.35088875 -12.77484611 12.92801312 -21.375 10.125 C-21.05341271 7.12351864 -20.39346979 6.14294208 -18.1875 4 C-12.2719611 0.0563074 -6.87209504 -0.14248363 0 0 Z " fill="#C4E20A" transform="translate(279.375,107.875)"/>
<path d="M0 0 C0.82242188 0.40992187 1.64484375 0.81984375 2.4921875 1.2421875 C11.68842071 5.681016 19.7555701 8.44541 30 8 C29.505 6.02 29.505 6.02 29 4 C29.99 4.33 30.98 4.66 32 5 C31.67 6.65 31.34 8.3 31 10 C26.05 10.33 21.1 10.66 16 11 C16 11.66 16 12.32 16 13 C17.09054688 12.89171875 17.09054688 12.89171875 18.203125 12.78125 C25.49220248 12.10841208 32.68214066 11.88322565 40 12 C40.495 14.97 40.495 14.97 41 18 C40.505 17.01 40.505 17.01 40 16 C39.34 16 38.68 16 38 16 C37.505 15.01 37.505 15.01 37 14 C36.31035156 14.0721875 35.62070313 14.144375 34.91015625 14.21875 C31.94212655 14.51188874 28.97295776 14.76231924 26 15 C25.29488281 15.06832031 24.58976562 15.13664062 23.86328125 15.20703125 C18.48141681 15.49251325 13.4666206 14.37811824 8.25 13.1875 C7.5163623 13.0222583 6.78272461 12.8570166 6.02685547 12.68676758 C1.8769927 11.67894376 -1.43126958 10.4517459 -5 8 C-3.68 7.34 -2.36 6.68 -1 6 C-0.01 6.99 0.98 7.98 2 9 C1.65555119 6.52733235 1.65555119 6.52733235 1 4 C0.34 3.67 -0.32 3.34 -1 3 C-0.67 2.01 -0.34 1.02 0 0 Z " fill="#B3CB16" transform="translate(62,104)"/>
<path d="M0 0 C2.97 0.495 2.97 0.495 6 1 C6.33 1.99 6.66 2.98 7 4 C6.030625 4.45375 5.06125 4.9075 4.0625 5.375 C0.92920418 6.65786221 0.92920418 6.65786221 0 9 C2.64 9.33 5.28 9.66 8 10 C8 10.66 8 11.32 8 12 C8.66 12 9.32 12 10 12 C9.67 12.66 9.34 13.32 9 14 C8.34 13.67 7.68 13.34 7 13 C-1.028612 12.07362169 -7.59592318 15.16977268 -15 18 C-17.99092284 19.03051985 -20.99364451 20.01515941 -24 21 C-24 20.01 -24 19.02 -24 18 C-22.35 18 -20.7 18 -19 18 C-19 16.68 -19 15.36 -19 14 C-20.65 14.33 -22.3 14.66 -24 15 C-19.29931418 9.67453948 -11.77446344 8.7206876 -5 8 C-7.98646769 6.00902154 -10.59687262 5.05875074 -14 4 C-10.57310364 2.85770121 -8.38897782 3.09138924 -4.8125 3.4375 C-3.18248047 3.59025391 -3.18248047 3.59025391 -1.51953125 3.74609375 C-0.27236328 3.87177734 -0.27236328 3.87177734 1 4 C0.67 2.68 0.34 1.36 0 0 Z " fill="#95A919" transform="translate(118,6)"/>
<path d="M0 0 C1.65 0.33 3.3 0.66 5 1 C5 8.59 5 16.18 5 24 C3.02 24.99 3.02 24.99 1 26 C-2.66109346 22.63575196 -5.27258702 19.70240201 -7 15 C-7.13359066 8.98842049 -3.39137337 4.66702757 0 0 Z " fill="#B8D30C" transform="translate(235,69)"/>
<path d="M0 0 C0.33 0 0.66 0 1 0 C1.06058594 0.62648438 1.12117187 1.25296875 1.18359375 1.8984375 C1.26738281 2.71570313 1.35117188 3.53296875 1.4375 4.375 C1.55931641 5.59316406 1.55931641 5.59316406 1.68359375 6.8359375 C1.89090114 9.04272805 1.89090114 9.04272805 3 11 C9.04444718 11 11.94756454 7.6816935 16.046875 3.71484375 C18 2 18 2 20 2 C20.328125 4.17578125 20.328125 4.17578125 20 7 C17.734375 9.60546875 17.734375 9.60546875 14.75 12.1875 C13.77546875 13.04730469 12.8009375 13.90710938 11.796875 14.79296875 C7.11751774 18.48547832 4.02810504 19.45043646 -1.875 19.32421875 C-4 19 -4 19 -6.5 17.1875 C-9.00698061 13.5314866 -9.11327569 10.62843392 -9.0625 6.3125 C-9.05347656 5.31863281 -9.04445312 4.32476562 -9.03515625 3.30078125 C-9.02355469 2.54152344 -9.01195312 1.78226562 -9 1 C-8.34 1 -7.68 1 -7 1 C-6.97421875 1.62648438 -6.9484375 2.25296875 -6.921875 2.8984375 C-6.86515625 3.71570313 -6.8084375 4.53296875 -6.75 5.375 C-6.70359375 6.18710938 -6.6571875 6.99921875 -6.609375 7.8359375 C-6.40828125 8.55007812 -6.2071875 9.26421875 -6 10 C-4.68 10.66 -3.36 11.32 -2 12 C-1.34 8.04 -0.68 4.08 0 0 Z " fill="#C0DC0B" transform="translate(203,97)"/>
<path d="M0 0 C2.31 0 4.62 0 7 0 C7.33 1.65 7.66 3.3 8 5 C-2.67828007 9.68026744 -11.36907287 11.63629013 -23 10 C-22.69921875 7.61328125 -22.69921875 7.61328125 -22 5 C-15.05435875 1.05051772 -7.79856923 1.70426774 0 2 C0 1.34 0 0.68 0 0 Z " fill="#B9D40E" transform="translate(240,108)"/>
<path d="M0 0 C-0.5746621 4.78642607 -1.98245643 8.53788787 -4.0625 12.875 C-4.61035156 14.02742188 -5.15820312 15.17984375 -5.72265625 16.3671875 C-6.14417969 17.23601562 -6.56570313 18.10484375 -7 19 C-7.99 19 -8.98 19 -10 19 C-10 20.32 -10 21.64 -10 23 C-10.99 23 -11.98 23 -13 23 C-13 22.34 -13 21.68 -13 21 C-13.66 20.67 -14.32 20.34 -15 20 C-14.67 18.35 -14.34 16.7 -14 15 C-14.66 15 -15.32 15 -16 15 C-15.77110404 9.39204896 -14.3841502 6.65520215 -10.66796875 2.48046875 C-7.01408799 -0.76267131 -4.70689626 -1.30747118 0 0 Z " fill="#C1E009" transform="translate(378,60)"/>
<path d="M0 0 C0.76173392 4.3164922 1.16063604 7.74433453 0 12 C-2.91482778 12.80967438 -4.46113217 13.21845993 -7.3125 12.0625 C-7.869375 11.711875 -8.42625 11.36125 -9 11 C-9 12.65 -9 14.3 -9 16 C-9.66 16 -10.32 16 -11 16 C-11.33 14.35 -11.66 12.7 -12 11 C-12.61875 11.495 -13.2375 11.99 -13.875 12.5 C-16 14 -16 14 -18 14 C-18 14.66 -18 15.32 -18 16 C-18.66 16 -19.32 16 -20 16 C-20.33 17.32 -20.66 18.64 -21 20 C-22.32 20 -23.64 20 -25 20 C-24.72482232 15.32197941 -22.66806114 13.25361247 -19.47265625 10.13671875 C-18 9 -18 9 -16 9 C-16 8.34 -16 7.68 -16 7 C-14.1015625 5.52734375 -14.1015625 5.52734375 -11.625 3.9375 C-10.81289063 3.41027344 -10.00078125 2.88304688 -9.1640625 2.33984375 C-5.80870977 0.26243222 -3.94207835 -0.1037389 0 0 Z " fill="#BBD413" transform="translate(401,63)"/>
<path d="M0 0 C0.61875 0.350625 1.2375 0.70125 1.875 1.0625 C2.57625 1.371875 3.2775 1.68125 4 2 C4.66 1.67 5.32 1.34 6 1 C5.72204709 5.08438847 5.42527205 9.1671965 5.125 13.25 C5.00705078 14.98830078 5.00705078 14.98830078 4.88671875 16.76171875 C4.80292969 17.87675781 4.71914062 18.99179688 4.6328125 20.140625 C4.55949707 21.16704102 4.48618164 22.19345703 4.41064453 23.25097656 C4.0124333 25.9167664 3.35615795 27.69308362 2 30 C-0.5 29.0625 -0.5 29.0625 -3 27 C-3.45787911 23.96183742 -3.28780586 21.05074215 -3 18 C-3.66 18 -4.32 18 -5 18 C-4.5317879 13.22423661 -3.75668002 9.95523655 -1 6 C-2.32 6.33 -3.64 6.66 -5 7 C-5 6.01 -5 5.02 -5 4 C-4.360625 3.71125 -3.72125 3.4225 -3.0625 3.125 C-0.84793921 2.17176549 -0.84793921 2.17176549 0 0 Z " fill="#C2E106" transform="translate(199,80)"/>
<path d="M0 0 C0.99 0.33 1.98 0.66 3 1 C-0.16143437 10.29833637 -6.59266296 14.00793647 -14.9375 18.3125 C-15.60547607 18.6623999 -16.27345215 19.0122998 -16.96166992 19.37280273 C-21.67689972 21.7042698 -25.72259661 22.7893593 -31 23 C-31.66 22.34 -32.32 21.68 -33 21 C-31.68 19.68 -30.36 18.36 -29 17 C-29.99 16.67 -30.98 16.34 -32 16 C-32 12.7 -32 9.4 -32 6 C-31.34 5.67 -30.68 5.34 -30 5 C-30 8.3 -30 11.6 -30 15 C-26.39955989 16.80022005 -22.74323656 15.98971838 -19 15 C-12.41183139 11.73737352 -7.36926348 7.8711978 -3 2 C-2.01 1.34 -1.02 0.68 0 0 Z " fill="#AABD20" transform="translate(345,93)"/>
<path d="M0 0 C2.875 0.625 2.875 0.625 6 2 C7.375 5.125 7.375 5.125 8 8 C9.32 8 10.64 8 12 8 C14.03435531 11.72965139 15 13.66905042 15 18 C12 19 12 19 9 18 C8.67 16.02 8.34 14.04 8 12 C6.90945312 12.10828125 6.90945312 12.10828125 5.796875 12.21875 C-1.49220248 12.89158792 -8.68214066 13.11677435 -16 13 C-16.33 12.01 -16.66 11.02 -17 10 C-9.08 9.505 -9.08 9.505 -1 9 C-1 7.68 -1 6.36 -1 5 C-1.66 4.34 -2.32 3.68 -3 3 C-2.01 2.01 -1.02 1.02 0 0 Z " fill="#C4E208" transform="translate(94,104)"/>
<path d="M0 0 C2.71458774 4.07188161 2.71458774 4.07188161 3 7 C1.9609375 9.7265625 1.9609375 9.7265625 0.375 12.625 C-0.13289062 13.58664063 -0.64078125 14.54828125 -1.1640625 15.5390625 C-3.26901092 18.36058911 -4.76575326 18.82879437 -8 20 C-8.33 20.99 -8.66 21.98 -9 23 C-10.65 23.33 -12.3 23.66 -14 24 C-13.0122936 17.57409836 -11.86390108 11.85797948 -9 6 C-8.01 6 -7.02 6 -6 6 C-6 5.34 -6 4.68 -6 4 C-4.68 4.33 -3.36 4.66 -2 5 C-2 3.68 -2 2.36 -2 1 C-1.34 0.67 -0.68 0.34 0 0 Z " fill="#BDDB08" transform="translate(178,77)"/>
<path d="M0 0 C0 0.66 0 1.32 0 2 C-0.680625 2.495 -1.36125 2.99 -2.0625 3.5 C-6.83948015 7.56551502 -11.00344291 13.01032872 -13 19 C-11.0509375 18.7215625 -11.0509375 18.7215625 -9.0625 18.4375 C-6.84765625 18.12109375 -6.84765625 18.12109375 -5 18 C-4.67 18.33 -4.34 18.66 -4 19 C-2.31816052 19.23287008 -0.6287584 19.41264166 1.0625 19.5625 C1.98160156 19.64628906 2.90070313 19.73007813 3.84765625 19.81640625 C4.91306641 19.90728516 4.91306641 19.90728516 6 20 C6 20.33 6 20.66 6 21 C-6.96577947 22.6730038 -6.96577947 22.6730038 -13 22 C-15 20 -15 20 -15.1953125 17.3984375 C-15.17210937 16.40070313 -15.14890625 15.40296875 -15.125 14.375 C-15.10695313 13.37210938 -15.08890625 12.36921875 -15.0703125 11.3359375 C-15.04710937 10.56507812 -15.02390625 9.79421875 -15 9 C-16.32 8.67 -17.64 8.34 -19 8 C-14.85690308 3.35470951 -6.56956225 -3.28478112 0 0 Z " fill="#ABC116" transform="translate(337,64)"/>
<path d="M0 0 C0.721875 0.12375 1.44375 0.2475 2.1875 0.375 C3.64137529 3.28275059 3.20946009 5.97938893 3.125 9.18359375 C3.0869813 11.55519941 3.0869813 11.55519941 4.1875 14.375 C2.8675 14.375 1.5475 14.375 0.1875 14.375 C-0.245625 15.7053125 -0.245625 15.7053125 -0.6875 17.0625 C-1.64398748 19.87882424 -2.68048946 22.62583156 -3.8125 25.375 C-4.58387384 22.86803503 -4.80417031 20.96684514 -4.75 18.3125 C-4.55364932 15.18166091 -4.55364932 15.18166091 -6.8125 12.375 C-8.76466435 14.32716435 -9.66076645 15.90699953 -10.8125 18.375 C-11.4725 17.715 -12.1325 17.055 -12.8125 16.375 C-12.1525 15.055 -11.4925 13.735 -10.8125 12.375 C-10.1525 12.375 -9.4925 12.375 -8.8125 12.375 C-8.750625 11.50875 -8.68875 10.6425 -8.625 9.75 C-7.46691552 4.93949523 -5.34696025 0.71292803 0 0 Z " fill="#B3D00A" transform="translate(319.8125,72.625)"/>
<path d="M0 0 C3.35620271 1.38877354 5.07298728 2.91677965 7 6 C7 6.66 7 7.32 7 8 C7.99 8.33 8.98 8.66 10 9 C10 11.64 10 14.28 10 17 C10.66 17 11.32 17 12 17 C11.6875 18.875 11.6875 18.875 11 21 C10.01 21.66 9.02 22.32 8 23 C4.40582825 21.80194275 3.9111833 20.4952657 2.24804688 17.22851562 C1.93931641 16.59623047 1.63058594 15.96394531 1.3125 15.3125 C0.99216797 14.69955078 0.67183594 14.08660156 0.34179688 13.45507812 C-1.63964333 9.47107362 -2.36081254 6.43186729 -2 2 C-1.34 2 -0.68 2 0 2 C0 1.34 0 0.68 0 0 Z " fill="#C0DF0B" transform="translate(72,66)"/>
<path d="M0 0 C0 1.32 0 2.64 0 4 C-1.65 4 -3.3 4 -5 4 C-5 5.32 -5 6.64 -5 8 C-7.08203125 9.8515625 -7.08203125 9.8515625 -9.8125 11.625 C-11.15248047 12.51058594 -11.15248047 12.51058594 -12.51953125 13.4140625 C-13.74736328 14.19910156 -13.74736328 14.19910156 -15 15 C-15.99 15.66 -16.98 16.32 -18 17 C-20.6875 17.125 -20.6875 17.125 -23 17 C-24 14 -24 14 -22.99609375 11.578125 C-20.49764039 8.3511598 -17.59398424 6.64512054 -14.0625 4.75 C-13.44181641 4.399375 -12.82113281 4.04875 -12.18164062 3.6875 C-7.95028587 1.34425775 -4.81049536 0 0 0 Z " fill="#B4CB1B" transform="translate(99,20)"/>
<path d="M0 0 C0.66 0.33 1.32 0.66 2 1 C2 3.97 2 6.94 2 10 C3.98 10.66 5.96 11.32 8 12 C8 12.66 8 13.32 8 14 C7.30132812 14.20496094 6.60265625 14.40992187 5.8828125 14.62109375 C4.97273438 14.89050781 4.06265625 15.15992187 3.125 15.4375 C2.22007812 15.70433594 1.31515625 15.97117187 0.3828125 16.24609375 C-1.98275381 16.92613826 -1.98275381 16.92613826 -4 18 C-4.33 17.01 -4.66 16.02 -5 15 C-7.31 14.67 -9.62 14.34 -12 14 C-12 14.66 -12 15.32 -12 16 C-16.01159357 17.03524995 -19.73566681 17.02356372 -23.83984375 16.96875 C-26.31959719 17.00462347 -28.6005124 17.38077739 -31 18 C-23.88261085 11.86254124 -13.01588897 11.45049887 -4 12 C-4 11.34 -4 10.68 -4 10 C-2.68 9.67 -1.36 9.34 0 9 C0 6.03 0 3.06 0 0 Z " fill="#B7D01A" transform="translate(252,94)"/>
<path d="M0 0 C0.33 0 0.66 0 1 0 C1 6.93 1 13.86 1 21 C0.01 21 -0.98 21 -2 21 C-2.33 21.66 -2.66 22.32 -3 23 C-5.82179677 20.09488246 -6.94119343 18.53455169 -7.390625 14.44921875 C-7.34421875 13.20785156 -7.2978125 11.96648438 -7.25 10.6875 C-7.21390625 9.43324219 -7.1778125 8.17898437 -7.140625 6.88671875 C-7.07101563 5.45779297 -7.07101563 5.45779297 -7 4 C-4.35261084 2.5393715 -3.10551666 2 0 2 C0 1.34 0 0.68 0 0 Z " fill="#C5E20B" transform="translate(154,46)"/>
<path d="M0 0 C21.17669297 3.75321792 21.17669297 3.75321792 27 11 C27 11.99 27 12.98 27 14 C21.22621075 13.5188509 17.04140164 11.81532819 12 9 C12 9.99 12 10.98 12 12 C12.66 12.33 13.32 12.66 14 13 C13.01 13 12.02 13 11 13 C11 12.34 11 11.68 11 11 C10.01 10.67 9.02 10.34 8 10 C8.33 8.35 8.66 6.7 9 5 C4.545 4.01 4.545 4.01 0 3 C0 2.01 0 1.02 0 0 Z " fill="#95AA1B" transform="translate(133,13)"/>
<path d="M0 0 C0.33 0.99 0.66 1.98 1 3 C1.99 3 2.98 3 4 3 C2.35777208 6.9719001 -0.37352894 9.88446566 -3.25 13 C-3.94802734 13.78117187 -3.94802734 13.78117187 -4.66015625 14.578125 C-7.81888127 18.02400684 -11.01794413 20.54950408 -15 23 C-15 22.01 -15 21.02 -15 20 C-15.99 20.66 -16.98 21.32 -18 22 C-18.99 22 -19.98 22 -21 22 C-19.77924385 18.33773156 -18.31206389 17.86081141 -14.984375 16.16015625 C-10.10210644 13.30575908 -6.92074221 9.8532601 -3.6875 5.25 C-2.99011719 4.26515625 -2.29273438 3.2803125 -1.57421875 2.265625 C-1.05472656 1.51796875 -0.53523438 0.7703125 0 0 Z " fill="#A8BA1A" transform="translate(190,88)"/>
<path d="M0 0 C1.98 0.66 3.96 1.32 6 2 C5.54625 2.721875 5.0925 3.44375 4.625 4.1875 C3.14505642 6.74894081 2.02782461 9.23277989 1 12 C0.01 11.34 -0.98 10.68 -2 10 C-2.45375 10.66 -2.9075 11.32 -3.375 12 C-3.91125 12.66 -4.4475 13.32 -5 14 C-5.66 14 -6.32 14 -7 14 C-7 14.66 -7 15.32 -7 16 C-7.66 16 -8.32 16 -9 16 C-9.33 16.99 -9.66 17.98 -10 19 C-10.66 18.34 -11.32 17.68 -12 17 C-14.58354218 16.83312552 -14.58354218 16.83312552 -17 17 C-16.34 15.35 -15.68 13.7 -15 12 C-14.67 12.66 -14.34 13.32 -14 14 C-13.21625 13.175 -12.4325 12.35 -11.625 11.5 C-9 9 -9 9 -7 9 C-7 8.34 -7 7.68 -7 7 C-6.34 7 -5.68 7 -5 7 C-5 6.34 -5 5.68 -5 5 C-4.34 5 -3.68 5 -3 5 C-3 4.34 -3 3.68 -3 3 C-2.34 3 -1.68 3 -1 3 C-0.67 2.01 -0.34 1.02 0 0 Z " fill="#B2C617" transform="translate(410,76)"/>
<path d="M0 0 C0.33 1.32 0.66 2.64 1 4 C0.01 4 -0.98 4 -2 4 C-2.18175781 4.61746094 -2.36351563 5.23492188 -2.55078125 5.87109375 C-3.07658337 7.64264242 -3.60958912 9.41206339 -4.1484375 11.1796875 C-4.69540645 12.99120852 -5.22317273 14.80870117 -5.7265625 16.6328125 C-5.96117188 17.43460938 -6.19578125 18.23640625 -6.4375 19.0625 C-6.64246094 19.79597656 -6.84742187 20.52945312 -7.05859375 21.28515625 C-8 23 -8 23 -10.09765625 23.74609375 C-11.03931641 23.87177734 -11.03931641 23.87177734 -12 24 C-12.2378234 16.50856285 -12.23460721 9.46003697 -8.0625 3 C-5.38011352 0.39889796 -3.71216375 0 0 0 Z " fill="#C4E304" transform="translate(72,10)"/>
<path d="M0 0 C0.33 0.66 0.66 1.32 1 2 C-1.97 2.99 -4.94 3.98 -8 5 C-7.34 5.33 -6.68 5.66 -6 6 C-5.34 5.67 -4.68 5.34 -4 5 C-2.47851674 4.91627341 -0.95344222 4.89269973 0.5703125 4.90234375 C1.46621094 4.90556641 2.36210938 4.90878906 3.28515625 4.91210938 C4.22230469 4.92048828 5.15945312 4.92886719 6.125 4.9375 C7.06988281 4.94201172 8.01476562 4.94652344 8.98828125 4.95117188 C11.32558387 4.96297643 13.66276061 4.97944241 16 5 C16 5.33 16 5.66 16 6 C14.865625 6.02578125 13.73125 6.0515625 12.5625 6.078125 C1.75381594 6.4388139 -5.64006303 7.35662906 -14 15 C-15.76323505 17.12603185 -15.76323505 17.12603185 -17 19 C-17.36923077 13.46153846 -17.36923077 13.46153846 -15.5 11.125 C-15.005 10.75375 -14.51 10.3825 -14 10 C-13.34 10.33 -12.68 10.66 -12 11 C-12.33 9.68 -12.66 8.36 -13 7 C-14.65 7.33 -16.3 7.66 -18 8 C-13.6286737 2.48832771 -6.69030214 1.07908099 0 0 Z " fill="#ADC119" transform="translate(85,3)"/>
<path d="M0 0 C1.0625 1.8125 1.0625 1.8125 2 4 C1.67 4.99 1.34 5.98 1 7 C3.64 7.33 6.28 7.66 9 8 C5.42502309 10.38331794 3.31615977 10.41523007 -0.9375 10.6875 C-2.16339844 10.77386719 -3.38929688 10.86023438 -4.65234375 10.94921875 C-7.41809969 10.99117304 -9.40770292 10.86409903 -12 10 C-11.67841271 6.99851864 -11.01846979 6.01794208 -8.8125 3.875 C-5.92096373 1.94730915 -3.33400523 0.93042006 0 0 Z " fill="#BBD80A" transform="translate(270,108)"/>
<path d="M0 0 C0.69867188 -0.020625 1.39734375 -0.04125 2.1171875 -0.0625 C6.61991443 -0.09648284 9.37683615 0.56093308 13 3.25 C12.67 4.24 12.34 5.23 12 6.25 C9.54101345 6.33076963 7.08466258 6.39037143 4.625 6.4375 C3.57699219 6.47520508 3.57699219 6.47520508 2.5078125 6.51367188 C0.4765625 6.54296875 0.4765625 6.54296875 -3 6.25 C-3.66 5.26 -4.32 4.27 -5 3.25 C-6.97747122 2.88702064 -6.97747122 2.88702064 -9.125 3.0625 C-10.40375 3.124375 -11.6825 3.18625 -13 3.25 C-13 2.59 -13 1.93 -13 1.25 C-8.6732881 0.20212446 -4.42981251 0.03269234 0 0 Z " fill="#9BAF10" transform="translate(337,79.75)"/>
<path d="M0 0 C0.66 0.33 1.32 0.66 2 1 C2.35200985 5.92813795 1.33799948 8.69808096 -1 13 C-1.68636625 15.23525035 -1.68636625 15.23525035 -2 17 C-3.32 17.33 -4.64 17.66 -6 18 C-7.76462683 14.91190305 -8 13.76687864 -8 10 C-7.34 10 -6.68 10 -6 10 C-5.855625 9.401875 -5.71125 8.80375 -5.5625 8.1875 C-5.1127561 6.43849596 -4.57107659 4.71322977 -4 3 C-3.34 3 -2.68 3 -2 3 C-2 2.34 -2 1.68 -2 1 C-1.34 0.67 -0.68 0.34 0 0 Z " fill="#C4E206" transform="translate(54,63)"/>
<path d="M0 0 C0.66 0.33 1.32 0.66 2 1 C-0.88716948 6.86376456 -3.43645562 11.40687759 -9 15 C-11.875 15.3125 -11.875 15.3125 -14 15 C-13.58846263 10.02906176 -13.20399168 5.55491614 -11 1 C-10.31292445 3.49064888 -10 5.37886292 -10 8 C-8.35 7.67 -6.7 7.34 -5 7 C-5.33 6.01 -5.66 5.02 -6 4 C-5.38125 3.896875 -4.7625 3.79375 -4.125 3.6875 C-1.63473516 3.12474627 -1.63473516 3.12474627 0 0 Z " fill="#BBD215" transform="translate(392,99)"/>
<path d="M0 0 C2.97 0.99 5.94 1.98 9 3 C8.67 4.32 8.34 5.64 8 7 C8.99 7.33 9.98 7.66 11 8 C11 9.65 11 11.3 11 13 C10.443125 12.690625 9.88625 12.38125 9.3125 12.0625 C7.03660778 10.88701428 7.03660778 10.88701428 4.5 10.625 C1.36469517 9.84117379 0.09082759 8.40057983 -2 6 C-1.34 4.02 -0.68 2.04 0 0 Z " fill="#BBD80A" transform="translate(53,100)"/>
<path d="M0 0 C0.66 0.33 1.32 0.66 2 1 C1.67 1.66 1.34 2.32 1 3 C2.32 3.33 3.64 3.66 5 4 C4.01 4.33 3.02 4.66 2 5 C3.32 5.66 4.64 6.32 6 7 C5.12988281 7.14695312 5.12988281 7.14695312 4.2421875 7.296875 C-1.09646432 8.31879515 -4.68885232 9.68373256 -9 13 C-9 11.68 -9 10.36 -9 9 C-7.68 9 -6.36 9 -5 9 C-5.33 8.34 -5.66 7.68 -6 7 C-11.28 7 -16.56 7 -22 7 C-21.67 6.34 -21.34 5.68 -21 5 C-18.51081123 4.38578459 -16.08267748 3.87730937 -13.5625 3.4375 C-8.64254627 2.67333845 -8.64254627 2.67333845 -4 1 C-4 2.65 -4 4.3 -4 6 C-3.01 6 -2.02 6 -1 6 C-1.33 4.35 -1.66 2.7 -2 1 C-1.34 0.67 -0.68 0.34 0 0 Z " fill="#86991B" transform="translate(294,102)"/>
<path d="M0 0 C0.33 1.32 0.66 2.64 1 4 C2.32 3.01 3.64 2.02 5 1 C5.66 1.33 6.32 1.66 7 2 C7 3.65 7 5.3 7 7 C6.195625 7.268125 5.39125 7.53625 4.5625 7.8125 C3.716875 8.204375 2.87125 8.59625 2 9 C1.67 9.99 1.34 10.98 1 12 C0.05125 12.12375 -0.8975 12.2475 -1.875 12.375 C-5.08667191 12.71687177 -5.08667191 12.71687177 -7 15 C-6.67 13.35 -6.34 11.7 -6 10 C-5.01 10 -4.02 10 -3 10 C-3.66 7.36 -4.32 4.72 -5 2 C-2 0 -2 0 0 0 Z " fill="#BEDC07" transform="translate(66,37)"/>
<path d="M0 0 C3.3 0 6.6 0 10 0 C10.58819531 5.73490428 8.70606843 10.06191892 6 15 C5.34 15.66 4.68 16.32 4 17 C4 15.68 4 14.36 4 13 C3.34 13 2.68 13 2 13 C1.375 11.1875 1.375 11.1875 1 9 C1.66 8.01 2.32 7.02 3 6 C3.99 6 4.98 6 6 6 C6 5.34 6 4.68 6 4 C4.68 3.67 3.36 3.34 2 3 C2 2.34 2 1.68 2 1 C1.34 0.67 0.68 0.34 0 0 Z " fill="#ABC315" transform="translate(205,61)"/>
<path d="M0 0 C1.60725635 3.21451269 1.05748185 6.43612536 1 10 C3.72842061 11.36421031 5.60953318 10.87807211 8.625 10.5625 C9.62789063 10.46066406 10.63078125 10.35882813 11.6640625 10.25390625 C12.43492187 10.17011719 13.20578125 10.08632812 14 10 C14 10.66 14 11.32 14 12 C14.99 12.33 15.98 12.66 17 13 C11.31501616 15.82933223 6.39301877 17.77568355 0 18 C-0.66 17.34 -1.32 16.68 -2 16 C-0.68 14.68 0.64 13.36 2 12 C1.01 11.67 0.02 11.34 -1 11 C-1.02688151 9.35425434 -1.04634123 7.70838587 -1.0625 6.0625 C-1.07410156 5.14597656 -1.08570313 4.22945313 -1.09765625 3.28515625 C-1 1 -1 1 0 0 Z " fill="#8C9E16" transform="translate(314,98)"/>
<path d="M0 0 C-0.61090226 6.47556391 -0.61090226 6.47556391 -2.4375 8.9375 C-4 10 -4 10 -6 10 C-6 10.66 -6 11.32 -6 12 C-8.5 13.625 -8.5 13.625 -11 15 C-11 13.68 -11 12.36 -11 11 C-11.99 11 -12.98 11 -14 11 C-14.33 11.66 -14.66 12.32 -15 13 C-16.65 12.67 -18.3 12.34 -20 12 C-20 11.67 -20 11.34 -20 11 C-19.46632813 10.87625 -18.93265625 10.7525 -18.3828125 10.625 C-12.09421717 8.88421237 -7.90074497 5.86869361 -2.96875 1.64453125 C-1 0 -1 0 0 0 Z " fill="#A0B21E" transform="translate(439,97)"/>
<path d="M0 0 C2.86134241 3.46273075 5.36574534 7.00686276 7.75 10.8125 C8.36359375 11.78832031 8.9771875 12.76414062 9.609375 13.76953125 C10.06828125 14.50558594 10.5271875 15.24164063 11 16 C9 16 7 16 5 16 C2.84971696 16.94978897 2.84971696 16.94978897 1 18 C-4 12.25 -4 12.25 -4 10 C-3.01 10 -2.02 10 -1 10 C-0.01 11.485 -0.01 11.485 1 13 C1.66 12.67 2.32 12.34 3 12 C2.505 11.05125 2.01 10.1025 1.5 9.125 C-0.29169141 5.39230955 0 4.20809561 0 0 Z " fill="#B8D312" transform="translate(89,90)"/>
<path d="M0 0 C0.66 0 1.32 0 2 0 C2.33203125 2.171875 2.33203125 2.171875 2 5 C-0.30078125 7.640625 -0.30078125 7.640625 -3.3125 10.25 C-4.79169922 11.55710937 -4.79169922 11.55710937 -6.30078125 12.890625 C-9 15 -9 15 -12 16 C-12.05781503 13.16706361 -12.0415808 11.58392161 -11 9 C-8.24002993 6.30471673 -5.15974196 4.19732514 -2 2 C-1.34 1.34 -0.68 0.68 0 0 Z " fill="#A7BB1F" transform="translate(221,99)"/>
<path d="M0 0 C7.14893617 -0.56737589 7.14893617 -0.56737589 11 2 C10.67 3.32 10.34 4.64 10 6 C8.08496326 6.22281874 6.16783494 6.42771076 4.25 6.625 C3.18265625 6.74101563 2.1153125 6.85703125 1.015625 6.9765625 C-2.03792399 7.00029475 -3.46162421 6.61420985 -6 5 C-5.34 4.34 -4.68 3.68 -4 3 C-3.34 3 -2.68 3 -2 3 C-1.34 2.01 -0.68 1.02 0 0 Z " fill="#C3E303" transform="translate(227,110)"/>
<path d="M0 0 C5.61 0.33 11.22 0.66 17 1 C15 4 15 4 12.98461914 4.50830078 C12.17629639 4.57001465 11.36797363 4.63172852 10.53515625 4.6953125 C9.65279297 4.77136719 8.77042969 4.84742188 7.86132812 4.92578125 C6.93771484 4.99152344 6.01410156 5.05726562 5.0625 5.125 C3.24065191 5.27054358 1.41902298 5.41886406 -0.40234375 5.5703125 C-1.61651978 5.65949951 -1.61651978 5.65949951 -2.85522461 5.75048828 C-5.18210979 5.94710107 -5.18210979 5.94710107 -8 7 C-8.66 6.34 -9.32 5.68 -10 5 C-6.48812804 2.59185923 -4.27343092 1.63370592 0 2 C0 1.34 0 0.68 0 0 Z " fill="#C4E10C" transform="translate(86,3)"/>
<path d="M0 0 C1.32 0 2.64 0 4 0 C6.18073633 5.17924877 7.76995331 9.28034687 7 15 C5 17.4375 5 17.4375 3 19 C2.67 18.34 2.34 17.68 2 17 C2.66 17 3.32 17 4 17 C3.814375 16.21625 3.62875 15.4325 3.4375 14.625 C3 12 3 12 4 10 C3.01 10 2.02 10 1 10 C1 10.66 1 11.32 1 12 C0.34 11.67 -0.32 11.34 -1 11 C-0.835 10.113125 -0.67 9.22625 -0.5 8.3125 C-0.07004243 5.46403108 0.08441035 2.86995198 0 0 Z " fill="#9FAF21" transform="translate(167,129)"/>
<path d="M0 0 C-1.375 2.5 -1.375 2.5 -3 5 C-3.66 5 -4.32 5 -5 5 C-5.66 7.31 -6.32 9.62 -7 12 C-7.99 11.67 -8.98 11.34 -10 11 C-10 10.34 -10 9.68 -10 9 C-10.99 9.33 -11.98 9.66 -13 10 C-13.33 10.99 -13.66 11.98 -14 13 C-14.66 13 -15.32 13 -16 13 C-15.51102778 8.76224078 -13.05503079 5.79423548 -10 3 C-2.99328859 -1.4966443 -2.99328859 -1.4966443 0 0 Z " fill="#A4B71B" transform="translate(288,65)"/>
<path d="M0 0 C1 3 1 3 0 6 C0.66 6 1.32 6 2 6 C2.1953125 12.0546875 2.1953125 12.0546875 2 14 C1.34 14.66 0.68 15.32 0 16 C-0.66 14.68 -1.32 13.36 -2 12 C-2.66 12 -3.32 12 -4 12 C-4 12.66 -4 13.32 -4 14 C-4.66 14 -5.32 14 -6 14 C-6.144375 14.598125 -6.28875 15.19625 -6.4375 15.8125 C-6.8872439 17.56150404 -7.42892341 19.28677023 -8 21 C-8.66 21 -9.32 21 -10 21 C-7.80144982 13.24041115 -4.22754377 6.84514622 0 0 Z " fill="#ADC31A" transform="translate(56,52)"/>
<path d="M0 0 C1.17487036 0.75827092 2.33972592 1.53207755 3.5 2.3125 C4.1496875 2.74175781 4.799375 3.17101562 5.46875 3.61328125 C5.9740625 4.07089844 6.479375 4.52851562 7 5 C7 8 7 8 5.875 10.125 C3.35862417 12.64137583 1.50381842 12.85090134 -2 13 C-2.66 12.34 -3.32 11.68 -4 11 C-3.25130208 9.30729167 -2.50260417 7.61458333 -1.75390625 5.921875 C-0.98767456 3.96857971 -0.46572431 2.04376103 0 0 Z " fill="#A9C20E" transform="translate(342,68)"/>
<path d="M0 0 C0.66 0.33 1.32 0.66 2 1 C2 1.66 2 2.32 2 3 C3.65 3 5.3 3 7 3 C5.76400948 6.70797156 4.19004216 7.38797832 0.8125 9.125 C0.214375 9.41375 -0.38375 9.7025 -1 10 C-1 8.35 -1 6.7 -1 5 C-4.3 5 -7.6 5 -11 5 C-11 4.34 -11 3.68 -11 3 C-7.29158487 0.16415314 -4.61917038 -0.41059292 0 0 Z " fill="#C5E503" transform="translate(205,61)"/>
<path d="M0 0 C0.66 0 1.32 0 2 0 C1.67 2.31 1.34 4.62 1 7 C3.31 5.02 5.62 3.04 8 1 C8 1.99 8 2.98 8 4 C8.99 4.33 9.98 4.66 11 5 C10.38125 5.2475 9.7625 5.495 9.125 5.75 C6.62181694 7.22246063 6.16954719 8.41028837 5 11 C4.01 11.495 4.01 11.495 3 12 C2.01 11.34 1.02 10.68 0 10 C-0.99 10.495 -0.99 10.495 -2 11 C-2 8.69 -2 6.38 -2 4 C-1.34 4 -0.68 4 0 4 C0 2.68 0 1.36 0 0 Z " fill="#9BAC17" transform="translate(368,79)"/>
<path d="M0 0 C0.33 0.99 0.66 1.98 1 3 C4.19902639 3.08886184 6.92677456 2.91058531 10 2 C10 3.65 10 5.3 10 7 C5.49646738 8.75747614 1.82360189 9.19294408 -3 9 C-2.34 8.67 -1.68 8.34 -1 8 C-1.33 5.69 -1.66 3.38 -2 1 C-1.34 0.67 -0.68 0.34 0 0 Z " fill="#ADC512" transform="translate(418,106)"/>
<path d="M0 0 C1.42443226 2.65894021 2.29213233 5.08004585 3 8 C3.6469365 9.6744239 4.30959426 11.34302621 5 13 C3.68 13 2.36 13 1 13 C0.67 12.01 0.34 11.02 0 10 C-2.01508358 9.26676204 -2.01508358 9.26676204 -4 9 C-3.67 6.69 -3.34 4.38 -3 2 C-3.66 1.67 -4.32 1.34 -5 1 C-3.35 0.67 -1.7 0.34 0 0 Z " fill="#C5E307" transform="translate(88,90)"/>
<path d="M0 0 C3.63 1.65 7.26 3.3 11 5 C7 9 7 9 5 10 C4.34 10.66 3.68 11.32 3 12 C0.36 10.68 -2.28 9.36 -5 8 C-3.68 7.34 -2.36 6.68 -1 6 C-0.01 6.99 0.98 7.98 2 9 C1.65555119 6.52733235 1.65555119 6.52733235 1 4 C0.34 3.67 -0.32 3.34 -1 3 C-0.67 2.01 -0.34 1.02 0 0 Z " fill="#A1B80F" transform="translate(62,104)"/>
<path d="M0 0 C2.97 0.495 2.97 0.495 6 1 C6.33 1.99 6.66 2.98 7 4 C6.030625 4.45375 5.06125 4.9075 4.0625 5.375 C0.92920418 6.65786221 0.92920418 6.65786221 0 9 C-0.639375 8.731875 -1.27875 8.46375 -1.9375 8.1875 C-5.91202261 6.64635858 -9.94884495 5.32390688 -14 4 C-10.57310364 2.85770121 -8.38897782 3.09138924 -4.8125 3.4375 C-3.18248047 3.59025391 -3.18248047 3.59025391 -1.51953125 3.74609375 C-0.68808594 3.82988281 0.14335938 3.91367188 1 4 C0.67 2.68 0.34 1.36 0 0 Z " fill="#A4BD0E" transform="translate(118,6)"/>
<path d="M0 0 C0 0.99 0 1.98 0 3 C-0.66 3.66 -1.32 4.32 -2 5 C-0.91447634 6.31262571 -0.91447634 6.31262571 1.72265625 6.09765625 C2.82480469 6.08605469 3.92695313 6.07445313 5.0625 6.0625 C6.16722656 6.05347656 7.27195313 6.04445313 8.41015625 6.03515625 C9.26480469 6.02355469 10.11945313 6.01195313 11 6 C7.67557501 8.21628333 6.04183681 8.38958598 2.125 8.6875 C1.09632813 8.77386719 0.06765625 8.86023438 -0.9921875 8.94921875 C-3.84629667 8.99740501 -6.23740442 8.6779063 -9 8 C-9 5.6875 -9 5.6875 -8 3 C-5.44481903 1.61706907 -2.79133871 0.78208351 0 0 Z " fill="#B2CA1C" transform="translate(226,110)"/>
<path d="M0 0 C0.66 0 1.32 0 2 0 C2.03738281 0.60328125 2.07476562 1.2065625 2.11328125 1.828125 C2.49705337 6.49359002 2.80844119 9.39215091 6 13 C6 13.99 6 14.98 6 16 C8.31 16 10.62 16 13 16 C13.33 16.66 13.66 17.32 14 18 C5.86330935 18.62589928 5.86330935 18.62589928 2.5 16.1875 C-0.00698061 12.5314866 -0.11327569 9.62843392 -0.0625 5.3125 C-0.05347656 4.31863281 -0.04445312 3.32476562 -0.03515625 2.30078125 C-0.02355469 1.54152344 -0.01195312 0.78226562 0 0 Z " fill="#9AAE1D" transform="translate(194,98)"/>
<path d="M0 0 C0 4.33685836 -2.08014014 5.9443327 -5 9 C-5.99 9 -6.98 9 -8 9 C-7.34 9.33 -6.68 9.66 -6 10 C-6 10.99 -6 11.98 -6 13 C-6.66 13 -7.32 13 -8 13 C-8 14.32 -8 15.64 -8 17 C-9.32 16.67 -10.64 16.34 -12 16 C-12 16.66 -12 17.32 -12 18 C-12.99 17.67 -13.98 17.34 -15 17 C-13.9218837 15.41310971 -12.83726048 13.83063918 -11.75 12.25 C-11.14671875 11.36828125 -10.5434375 10.4865625 -9.921875 9.578125 C-8.0968476 7.12991751 -6.28663325 5.02206412 -4 3 C-3.34 3 -2.68 3 -2 3 C-2 2.34 -2 1.68 -2 1 C-1.34 0.67 -0.68 0.34 0 0 Z " fill="#B3CC1A" transform="translate(184,65)"/>
<path d="M0 0 C0.36738281 0.52207031 0.73476562 1.04414062 1.11328125 1.58203125 C3.00142783 3.34303607 3.00142783 3.34303607 5.91796875 2.63671875 C6.99691406 2.32347656 8.07585937 2.01023437 9.1875 1.6875 C10.27417969 1.38199219 11.36085938 1.07648438 12.48046875 0.76171875 C13.31191406 0.51035156 14.14335938 0.25898437 15 0 C15 0.66 15 1.32 15 2 C13.68 2 12.36 2 11 2 C11 2.99 11 3.98 11 5 C12.32 5.33 13.64 5.66 15 6 C11.04 7.98 11.04 7.98 7 10 C6.67 8.68 6.34 7.36 6 6 C4.68 6 3.36 6 2 6 C1.34 4.02 0.68 2.04 0 0 Z " fill="#829314" transform="translate(100,106)"/>
<path d="M0 0 C0 3.3 0 6.6 0 10 C-1.32 10.33 -2.64 10.66 -4 11 C-4.33 11.66 -4.66 12.32 -5 13 C-6.125 8.25 -6.125 8.25 -5 6 C-5.66 6 -6.32 6 -7 6 C-7 4.35 -7 2.7 -7 1 C-2.25 0 -2.25 0 0 0 Z " fill="#C4E308" transform="translate(252,93)"/>
<path d="M0 0 C0.33 1.32 0.66 2.64 1 4 C0.01 4 -0.98 4 -2 4 C-2.66 6.64 -3.32 9.28 -4 12 C-4.33 11.01 -4.66 10.02 -5 9 C-6.65 9.66 -8.3 10.32 -10 11 C-10.39600661 7.53494217 -10.14386351 6.21827567 -8.1875 3.25 C-5.44596564 0.43013609 -3.90442167 0 0 0 Z " fill="#C4E308" transform="translate(72,10)"/>
<path d="M0 0 C1.375 1.8125 1.375 1.8125 2 4 C1.625 6.25 1.625 6.25 1 8 C-3.19360449 7.32902328 -6.40334352 5.1441606 -10 3 C-9.01 2.67 -8.02 2.34 -7 2 C-7 1.34 -7 0.68 -7 0 C-4.25509788 -1.37245106 -2.87939419 -0.93580311 0 0 Z " fill="#C4E406" transform="translate(286,90)"/>
<path d="M0 0 C-0.66 0.66 -1.32 1.32 -2 2 C-2.99 2 -3.98 2 -5 2 C-4.67 2.33 -4.34 2.66 -4 3 C-2.865625 3 -1.73125 3 -0.5625 3 C3 3 3 3 5 4 C5 5.65 5 7.3 5 9 C4.01 9.495 4.01 9.495 3 10 C2.34 9.34 1.68 8.68 1 8 C1.66 7.01 2.32 6.02 3 5 C-0.9492568 5.55105909 -4.34920174 6.38935371 -8 8 C-8 6.68 -8 5.36 -8 4 C-8.66 3.34 -9.32 2.68 -10 2 C-8.71211992 1.46987262 -7.41953322 0.9511671 -6.125 0.4375 C-5.40570313 0.14746094 -4.68640625 -0.14257812 -3.9453125 -0.44140625 C-2 -1 -2 -1 0 0 Z " fill="#A8BE18" transform="translate(199,62)"/>
<path d="M0 0 C0.66 1.32 1.32 2.64 2 4 C-3.29230769 8.92307692 -3.29230769 8.92307692 -6.875 9.3125 C-7.926875 9.1578125 -7.926875 9.1578125 -9 9 C-9.33 8.01 -9.66 7.02 -10 6 C-9.67 5.34 -9.34 4.68 -9 4 C-7.68 4 -6.36 4 -5 4 C-5 3.34 -5 2.68 -5 2 C-4.360625 1.855625 -3.72125 1.71125 -3.0625 1.5625 C-1.02454854 1.18992819 -1.02454854 1.18992819 0 0 Z " fill="#BFDA11" transform="translate(85,28)"/>
<path d="M0 0 C1.32 0.33 2.64 0.66 4 1 C3.21718695 2.33855056 2.42348123 3.67073644 1.625 5 C1.18414062 5.7425 0.74328125 6.485 0.2890625 7.25 C-0.34902344 8.11625 -0.34902344 8.11625 -1 9 C-1.66 9 -2.32 9 -3 9 C-3.66 10.32 -4.32 11.64 -5 13 C-5.99 12.34 -6.98 11.68 -8 11 C-8.66 11 -9.32 11 -10 11 C-9.42655063 8.13275314 -9.1385485 7.1385485 -7 5 C-6.67 5.33 -6.34 5.66 -6 6 C-3.49034386 5.29660434 -3.49034386 5.29660434 -1 4 C-0.11306697 1.95894361 -0.11306697 1.95894361 0 0 Z " fill="#A2BC13" transform="translate(144,81)"/>
<path d="M0 0 C0.33 0.66 0.66 1.32 1 2 C-0.32 2.33 -1.64 2.66 -3 3 C-3.33 4.32 -3.66 5.64 -4 7 C-3.67 6.67 -3.34 6.34 -3 6 C-2.67 6.66 -2.34 7.32 -2 8 C2.95 7.67 7.9 7.34 13 7 C9.42502309 9.38331794 7.31615977 9.41523007 3.0625 9.6875 C1.83660156 9.77386719 0.61070312 9.86023438 -0.65234375 9.94921875 C-3.41809969 9.99117304 -5.40770292 9.86409903 -8 9 C-7.66032174 5.82966958 -7.00130809 5.00117393 -4.5625 2.8125 C-2 1 -2 1 0 0 Z " fill="#A4B71E" transform="translate(266,109)"/>
<path d="M0 0 C0.103125 0.639375 0.20625 1.27875 0.3125 1.9375 C0.6528125 2.9584375 0.6528125 2.9584375 1 4 C1.99 4.33 2.98 4.66 4 5 C4 5.66 4 6.32 4 7 C3.34 7 2.68 7 2 7 C1.566875 7.9590625 1.566875 7.9590625 1.125 8.9375 C0 11 0 11 -2 12 C-2 11.34 -2 10.68 -2 10 C-2.99 9.67 -3.98 9.34 -5 9 C-4.01 9 -3.02 9 -2 9 C-2 8.34 -2 7.68 -2 7 C-4.16874252 7.50603992 -5.99967627 7.99983813 -8 9 C-6.4169423 4.7257442 -3.49431596 2.73468206 0 0 Z " fill="#9EB412" transform="translate(75,32)"/>
<path d="M0 0 C0.66 0 1.32 0 2 0 C2 3.3 2 6.6 2 10 C3.0209375 9.505 3.0209375 9.505 4.0625 9 C7.50840238 7.82692685 10.38397422 7.85819507 14 8 C10.25474201 11.74525799 6.01729091 11.68909949 1 12 C-0.93302372 8.4701306 -1.26403152 6.04848324 -1 2 C-0.67 1.34 -0.34 0.68 0 0 Z " fill="#A2BB22" transform="translate(160,104)"/>
<path d="M0 0 C0.66 0.33 1.32 0.66 2 1 C2 2.65 2 4.3 2 6 C0.68 6.33 -0.64 6.66 -2 7 C-1.67 8.65 -1.34 10.3 -1 12 C-1.99 12 -2.98 12 -4 12 C-5 10 -6 8 -7 6 C-6 3 -6 3 -3.0625 1.25 C-2.051875 0.8375 -1.04125 0.425 0 0 Z " fill="#B9D609" transform="translate(294,96)"/>
<path d="M0 0 C0.93423645 3.01031744 1.04449911 3.86650268 0 7 C-0.66 7 -1.32 7 -2 7 C-2 7.66 -2 8.32 -2 9 C-2.66 9 -3.32 9 -4 9 C-4.33 10.32 -4.66 11.64 -5 13 C-6.32 13 -7.64 13 -9 13 C-8.72482232 8.32197941 -6.66806114 6.25361247 -3.47265625 3.13671875 C-2 2 -2 2 0 2 C0 1.34 0 0.68 0 0 Z " fill="#A8B71E" transform="translate(385,70)"/>
<path d="M0 0 C0.99 0.66 1.98 1.32 3 2 C3 2.66 3 3.32 3 4 C3.66 4 4.32 4 5 4 C4.67 6.64 4.34 9.28 4 12 C4.66 12.33 5.32 12.66 6 13 C1.61537866 12.49890042 -0.8000997 11.01704885 -4 8 C-4 7.34 -4 6.68 -4 6 C-2.35 6 -0.7 6 1 6 C0.67 4.02 0.34 2.04 0 0 Z " fill="#B1C916" transform="translate(108,116)"/>
<path d="M0 0 C0.99 0.33 1.98 0.66 3 1 C2.34 4.3 1.68 7.6 1 11 C0.01 10.67 -0.98 10.34 -2 10 C-2.33 10.66 -2.66 11.32 -3 12 C-3.99 11.67 -4.98 11.34 -6 11 C-5.625 9.0625 -5.625 9.0625 -5 7 C-4.34 6.67 -3.68 6.34 -3 6 C-2.29788106 4.34795544 -1.63028587 2.68076231 -1 1 C-0.67 0.67 -0.34 0.34 0 0 Z " fill="#C5E20F" transform="translate(237,69)"/>
<path d="M0 0 C0.99 0 1.98 0 3 0 C3.66 1.98 4.32 3.96 5 6 C3.35 6.33 1.7 6.66 0 7 C0 7.66 0 8.32 0 9 C-1.32 9.33 -2.64 9.66 -4 10 C-4.99 8.68 -5.98 7.36 -7 6 C-6.01 6 -5.02 6 -4 6 C-3.34 5.01 -2.68 4.02 -2 3 C-1.34 2.01 -0.68 1.02 0 0 Z " fill="#B3D007" transform="translate(279,83)"/>
<path d="M0 0 C-2.87981351 3.30645255 -4.61876776 4.61055713 -9 5 C-11.28084602 5.01661819 -13.55915257 4.99920998 -15.83984375 4.96875 C-18.31959719 5.00462347 -20.6005124 5.38077739 -23 6 C-19.73238821 3.15478681 -16.82977373 2.23872638 -12.625 1.3125 C-11.52414063 1.06113281 -10.42328125 0.80976562 -9.2890625 0.55078125 C-6.12043606 0.02016803 -3.20512801 -0.10167325 0 0 Z " fill="#92A518" transform="translate(244,106)"/>
<path d="M0 0 C1.32 0 2.64 0 4 0 C4.33 1.98 4.66 3.96 5 6 C4.34 6 3.68 6 3 6 C3 6.66 3 7.32 3 8 C2.34 8 1.68 8 1 8 C0.67 8.99 0.34 9.98 0 11 C-2 10 -2 10 -3 8 C-2.44140625 6.0546875 -2.44140625 6.0546875 -1.5625 3.875 C-1.27503906 3.15054688 -0.98757813 2.42609375 -0.69140625 1.6796875 C-0.46324219 1.12539062 -0.23507812 0.57109375 0 0 Z " fill="#C4E405" transform="translate(414,79)"/>
<path d="M0 0 C0.99 0.33 1.98 0.66 3 1 C3 1.66 3 2.32 3 3 C3.66 3 4.32 3 5 3 C5 3.99 5 4.98 5 6 C5.66 6 6.32 6 7 6 C6.6875 7.875 6.6875 7.875 6 10 C5.01 10.66 4.02 11.32 3 12 C1 10 1 10 0.875 6.875 C0.91625 5.92625 0.9575 4.9775 1 4 C0.34 4 -0.32 4 -1 4 C-0.67 2.68 -0.34 1.36 0 0 Z " fill="#C5E403" transform="translate(77,77)"/>
<path d="M0 0 C0.28617188 0.57492188 0.57234375 1.14984375 0.8671875 1.7421875 C1.59316658 3.1891389 2.3268655 4.63225808 3.0703125 6.0703125 C3.59238281 7.08738281 3.59238281 7.08738281 4.125 8.125 C4.47820312 8.80820313 4.83140625 9.49140625 5.1953125 10.1953125 C6 12 6 12 6 14 C5.34 14 4.68 14 4 14 C2.65668346 12.00669158 1.32405988 10.00615134 0 8 C-0.99 7.34 -1.98 6.68 -3 6 C-3.66 7.65 -4.32 9.3 -5 11 C-5.66 10.67 -6.32 10.34 -7 10 C-7.625 7.9375 -7.625 7.9375 -8 6 C-4.535 5.505 -4.535 5.505 -1 5 C-0.67 3.35 -0.34 1.7 0 0 Z " fill="#A2BB0F" transform="translate(75,60)"/>
<path d="M0 0 C0.66 0.33 1.32 0.66 2 1 C2 1.99 2 2.98 2 4 C2.99 4.33 3.98 4.66 5 5 C4.01 6.485 4.01 6.485 3 8 C-0.71640139 8.27028374 -3.457201 8.180933 -7 7 C-6 4 -6 4 -4 2 C-2.68 2 -1.36 2 0 2 C0 1.34 0 0.68 0 0 Z " fill="#C4E405" transform="translate(125,8)"/>
<path d="M0 0 C0.33 0.66 0.66 1.32 1 2 C1.99 2.33 2.98 2.66 4 3 C4 3.66 4 4.32 4 5 C2.35 5 0.7 5 -1 5 C-0.67 5.66 -0.34 6.32 0 7 C0.99 6.67 1.98 6.34 3 6 C3.33 6.66 3.66 7.32 4 8 C2.25 10 2.25 10 0 12 C-1.32 12 -2.64 12 -4 12 C-3.45660208 7.43545749 -2.20536179 4.0271824 0 0 Z " fill="#ACC317" transform="translate(195,79)"/>
<path d="M0 0 C0.33 0 0.66 0 1 0 C1 1.65 1 3.3 1 5 C1.66 5 2.32 5 3 5 C2.49912282 9.34093558 -0.28264698 11.75243176 -3 15 C-4.3049484 17.7124618 -4.3049484 17.7124618 -5 20 C-5.66 20 -6.32 20 -7 20 C-5.07443364 13.14381674 -2.7527517 6.56747868 0 0 Z " fill="#B7CE18" transform="translate(389,80)"/>
<path d="M0 0 C3.72433382 1.2125738 7.37802806 2.50859979 11 4 C11 4.66 11 5.32 11 6 C11.66 6 12.32 6 13 6 C13 6.66 13 7.32 13 8 C12.34 8 11.68 8 11 8 C11.66 8.66 12.32 9.32 13 10 C13.69748583 11.31747324 14.36959957 12.64914193 15 14 C14.01 14.495 14.01 14.495 13 15 C12.52949219 14.37351562 12.05898437 13.74703125 11.57421875 13.1015625 C10.64029297 11.87566406 10.64029297 11.87566406 9.6875 10.625 C9.07261719 9.81289063 8.45773438 9.00078125 7.82421875 8.1640625 C6.00519317 5.80220611 6.00519317 5.80220611 3 4 C3 3.34 3 2.68 3 2 C2.01 1.67 1.02 1.34 0 1 C0 0.67 0 0.34 0 0 Z " fill="#98AD17" transform="translate(128,20)"/>
<path d="M0 0 C2.875 1.3125 2.875 1.3125 4.875 3.3125 C4.875 4.3025 4.875 5.2925 4.875 6.3125 C0.09923661 5.8442879 -3.16976345 5.06918002 -7.125 2.3125 C-4.48817997 -0.32432003 -3.74987532 -0.82497257 0 0 Z " fill="#98AD1A" transform="translate(155.125,20.6875)"/>
<path d="M0 0 C0.66 0.33 1.32 0.66 2 1 C2.59355614 3.64860427 2.74209269 6.29197322 3 9 C1.02 9 -0.96 9 -3 9 C-3 9.66 -3 10.32 -3 11 C-3.99 10.67 -4.98 10.34 -6 10 C-6 9.34 -6 8.68 -6 8 C-5.34 8 -4.68 8 -4 8 C-3.8453125 7.13375 -3.8453125 7.13375 -3.6875 6.25 C-2.90207202 3.67950842 -1.69495803 2.06342716 0 0 Z " fill="#C3E401" transform="translate(363,87)"/>
<path d="M0 0 C0.66 0.33 1.32 0.66 2 1 C0.73433762 3.10743309 -0.53723838 5.21088672 -1.8125 7.3125 C-2.16892578 7.90740234 -2.52535156 8.50230469 -2.89257812 9.11523438 C-6.47219831 14.99369322 -6.47219831 14.99369322 -9 17 C-9.66 17 -10.32 17 -11 17 C-11.33 16.01 -11.66 15.02 -12 14 C-10.68 14 -9.36 14 -8 14 C-8 12.68 -8 11.36 -8 10 C-7.34 10 -6.68 10 -6 10 C-6 8.68 -6 7.36 -6 6 C-5.34 6 -4.68 6 -4 6 C-4 5.34 -4 4.68 -4 4 C-3.34 4 -2.68 4 -2 4 C-2 3.01 -2 2.02 -2 1 C-1.34 0.67 -0.68 0.34 0 0 Z " fill="#9FB320" transform="translate(364,98)"/>
<path d="M0 0 C8.25 0.33 16.5 0.66 25 1 C20.02616394 4.31589071 15.25329756 4.39451674 9.51953125 3.390625 C6.32724259 2.65260407 3.16018977 1.86453414 0 1 C0 0.67 0 0.34 0 0 Z " fill="#9CAF19" transform="translate(144,147)"/>
<path d="M0 0 C2.75 0.9375 2.75 0.9375 5.75 2.9375 C3.275 4.4225 3.275 4.4225 0.75 5.9375 C0.09 4.9475 -0.57 3.9575 -1.25 2.9375 C-2.24 3.5975 -3.23 4.2575 -4.25 4.9375 C-4.91 4.6075 -5.57 4.2775 -6.25 3.9375 C-6.25 4.5975 -6.25 5.2575 -6.25 5.9375 C-7.57 5.6075 -8.89 5.2775 -10.25 4.9375 C-4.37690355 -0.08417122 -4.37690355 -0.08417122 0 0 Z " fill="#9CAF19" transform="translate(86.25,26.0625)"/>
<path d="M0 0 C1.32 0 2.64 0 4 0 C4.73080266 1.97746603 5.39421747 3.98072489 6 6 C5.67 6.66 5.34 7.32 5 8 C6.32 8 7.64 8 9 8 C8.67 6.68 8.34 5.36 8 4 C8.99 4.33 9.98 4.66 11 5 C11.33 3.68 11.66 2.36 12 1 C12.75 2.6875 12.75 2.6875 13 5 C11.4375 7.6875 11.4375 7.6875 9 10 C5.75 10.8125 5.75 10.8125 3 11 C3.061875 9.741875 3.12375 8.48375 3.1875 7.1875 C3.23632922 3.83041021 3.23632922 3.83041021 1.5 1 C1.005 0.67 0.51 0.34 0 0 Z " fill="#A4B720" transform="translate(295,66)"/>
<path d="M0 0 C0 0.66 0 1.32 0 2 C-1.98 2.99 -1.98 2.99 -4 4 C-4 3.34 -4 2.68 -4 2 C-5.98 2.33 -7.96 2.66 -10 3 C-9.67 4.65 -9.34 6.3 -9 8 C-9.99 7.67 -10.98 7.34 -12 7 C-12 6.34 -12 5.68 -12 5 C-13.32 4.67 -14.64 4.34 -16 4 C-11.91259222 1.099259 -4.88886849 -2.44443424 0 0 Z " fill="#B6CD16" transform="translate(337,64)"/>
<path d="M0 0 C-0.59104765 4.84659077 -1.97944157 8.60748167 -4 13 C-5.26120854 9.21637439 -4.25482572 7.68605054 -3 4 C-3.33 3.34 -3.66 2.68 -4 2 C-5.97536745 2.34786708 -5.97536745 2.34786708 -8 3 C-8.33 3.66 -8.66 4.32 -9 5 C-9.99 4.67 -10.98 4.34 -12 4 C-5.5 -1.30263158 -5.5 -1.30263158 0 0 Z " fill="#87961A" transform="translate(378,60)"/>
<path d="M0 0 C1.47906892 -0.02689216 2.95827483 -0.04634621 4.4375 -0.0625 C5.26121094 -0.07410156 6.08492188 -0.08570312 6.93359375 -0.09765625 C9 0 9 0 10 1 C11.68183948 1.23287008 13.3712416 1.41264166 15.0625 1.5625 C15.98160156 1.64628906 16.90070313 1.73007813 17.84765625 1.81640625 C18.91306641 1.90728516 18.91306641 1.90728516 20 2 C20 2.33 20 2.66 20 3 C7.03422053 4.6730038 7.03422053 4.6730038 1 4 C0.34 3.34 -0.32 2.68 -1 2 C-0.67 1.34 -0.34 0.68 0 0 Z " fill="#C4DD23" transform="translate(323,82)"/>
<path d="M0 0 C0.99 0.33 1.98 0.66 3 1 C3.33 1.99 3.66 2.98 4 4 C4.66 4.33 5.32 4.66 6 5 C6 6.32 6 7.64 6 9 C3.69 9.33 1.38 9.66 -1 10 C-1.125 2.25 -1.125 2.25 0 0 Z " fill="#C5E406" transform="translate(68,56)"/>
<path d="M0 0 C1.18851563 0.19464844 2.37703125 0.38929687 3.6015625 0.58984375 C4.97441406 0.82380859 4.97441406 0.82380859 6.375 1.0625 C6.375 1.7225 6.375 2.3825 6.375 3.0625 C7.035 3.0625 7.695 3.0625 8.375 3.0625 C8.045 3.7225 7.715 4.3825 7.375 5.0625 C6.715 4.7325 6.055 4.4025 5.375 4.0625 C0.22054984 3.88777288 -4.54440468 4.21573411 -9.625 5.0625 C-8.305 4.0725 -6.985 3.0825 -5.625 2.0625 C-6.615 1.4025 -7.605 0.7425 -8.625 0.0625 C-5.61666904 -1.44166548 -3.27538422 -0.54589737 0 0 Z " fill="#A8BD1F" transform="translate(119.625,14.9375)"/>
<path d="M0 0 C2 3 2 3 2 5 C-4.15234375 5.09765625 -4.15234375 5.09765625 -6 5 C-6.33 4.67 -6.66 4.34 -7 4 C-8.34747084 3.76924918 -9.70377565 3.58846937 -11.0625 3.4375 C-12.361875 3.293125 -13.66125 3.14875 -15 3 C-11.85388747 0.90259164 -11.08811922 0.74671781 -7.5 0.8125 C-6.7265625 0.81894531 -5.953125 0.82539062 -5.15625 0.83203125 C-3 1 -3 1 0 2 C0 1.34 0 0.68 0 0 Z " fill="#C5E406" transform="translate(117,5)"/>
<path d="M0 0 C0.66 0.33 1.32 0.66 2 1 C1.67 1.99 1.34 2.98 1 4 C2.32 4.66 3.64 5.32 5 6 C1.7 7.32 -1.6 8.64 -5 10 C-5.33 9.01 -5.66 8.02 -6 7 C-4.35 7 -2.7 7 -1 7 C-1 5.68 -1 4.36 -1 3 C-2.65 3.33 -4.3 3.66 -6 4 C-3.94766315 1.7522025 -2.99332739 0.9977758 0 0 Z " fill="#899A13" transform="translate(100,17)"/>
<path d="M0 0 C0.66 0.33 1.32 0.66 2 1 C1.67 1.33 1.34 1.66 1 2 C1.66 2.66 2.32 3.32 3 4 C1.576875 4.3403125 1.576875 4.3403125 0.125 4.6875 C-3.19323388 5.69083714 -3.19323388 5.69083714 -4.375 8.625 C-4.58125 9.40875 -4.7875 10.1925 -5 11 C-6 8 -6 8 -6 6 C-6.66 5.34 -7.32 4.68 -8 4 C-6.71349294 3.30289269 -5.42059335 2.61757124 -4.125 1.9375 C-3.40570313 1.55464844 -2.68640625 1.17179687 -1.9453125 0.77734375 C-1.30335938 0.52082031 -0.66140625 0.26429687 0 0 Z " fill="#8E9F17" transform="translate(245,64)"/>
<path d="M0 0 C0.33 0.99 0.66 1.98 1 3 C1.66 2.34 2.32 1.68 3 1 C5.125 0.375 5.125 0.375 7 0 C6.67 0.99 6.34 1.98 6 3 C5.34 3 4.68 3 4 3 C4 3.66 4 4.32 4 5 C3.34 5 2.68 5 2 5 C1.67 5.99 1.34 6.98 1 8 C0.34 7.34 -0.32 6.68 -1 6 C-3.58354218 5.83312552 -3.58354218 5.83312552 -6 6 C-5.34 4.35 -4.68 2.7 -4 1 C-3.67 1.66 -3.34 2.32 -3 3 C-2.01 2.01 -1.02 1.02 0 0 Z " fill="#7F9110" transform="translate(399,87)"/>
<path d="M0 0 C0.99 0 1.98 0 3 0 C4.25 2.6875 4.25 2.6875 5 6 C3.125 8.875 3.125 8.875 1 11 C1 9.68 1 8.36 1 7 C0.34 7 -0.32 7 -1 7 C-1.625 5.1875 -1.625 5.1875 -2 3 C-1.34 2.01 -0.68 1.02 0 0 Z " fill="#ACC608" transform="translate(208,67)"/>
<path d="M0 0 C3.3 1.65 6.6 3.3 10 5 C7 6 7 6 4 6 C4 5.34 4 4.68 4 4 C3.01 4 2.02 4 1 4 C1 4.66 1 5.32 1 6 C1.99 6.33 2.98 6.66 4 7 C3.67 7.66 3.34 8.32 3 9 C0.03 7.35 -2.94 5.7 -6 4 C-4.68 3.67 -3.36 3.34 -2 3 C-1.34 2.67 -0.68 2.34 0 2 C0 1.34 0 0.68 0 0 Z " fill="#9CAC1B" transform="translate(132,136)"/>
<path d="M0 0 C4.51219512 -0.36585366 4.51219512 -0.36585366 6.75 1.3125 C8 3 8 3 9 6 C7.02 6.33 5.04 6.66 3 7 C0 3.375 0 3.375 0 0 Z " fill="#BDD80D" transform="translate(112,126)"/>
<path d="M0 0 C2.475 0.495 2.475 0.495 5 1 C4.67 2.32 4.34 3.64 4 5 C4.99 5.33 5.98 5.66 7 6 C7 7.65 7 9.3 7 11 C6.401875 10.690625 5.80375 10.38125 5.1875 10.0625 C2.91043228 8.89790296 2.91043228 8.89790296 0 8 C0.66 5.69 1.32 3.38 2 1 C1.34 0.67 0.68 0.34 0 0 Z " fill="#C3E20C" transform="translate(57,102)"/>
<path d="M0 0 C2 3.75 2 3.75 2 6 C-0.5 7.625 -0.5 7.625 -3 9 C-3 7.68 -3 6.36 -3 5 C-3.99 5 -4.98 5 -6 5 C-6.33 5.66 -6.66 6.32 -7 7 C-8.65 6.67 -10.3 6.34 -12 6 C-12 5.67 -12 5.34 -12 5 C-11.07767578 4.70996094 -11.07767578 4.70996094 -10.13671875 4.4140625 C-9.32847656 4.15367188 -8.52023437 3.89328125 -7.6875 3.625 C-6.88699219 3.36976562 -6.08648437 3.11453125 -5.26171875 2.8515625 C-2.77275472 2.01168189 -2.77275472 2.01168189 0 0 Z " fill="#8B9E17" transform="translate(431,103)"/>
<path d="M0 0 C0.99 0.33 1.98 0.66 3 1 C0.375 7.75 0.375 7.75 -3 10 C-3.66 8.02 -4.32 6.04 -5 4 C-2.6875 1.9375 -2.6875 1.9375 0 0 Z " fill="#7C8A10" transform="translate(345,93)"/>
<path d="M0 0 C0.99 0.33 1.98 0.66 3 1 C3 1.99 3 2.98 3 4 C2.01 4 1.02 4 0 4 C-0.33 5.65 -0.66 7.3 -1 9 C-2.98 9.66 -4.96 10.32 -7 11 C-7 10.34 -7 9.68 -7 9 C-5.66666667 7.66666667 -4.33333333 6.33333333 -3 5 C-1.95650161 3.36021682 -0.94392019 1.69905634 0 0 Z " fill="#C5E20C" transform="translate(144,77)"/>
<path d="M0 0 C0.25 2.75 0.25 2.75 0 6 C-2 8.375 -2 8.375 -4 10 C-5.25664978 7.09399739 -6 5.20395416 -6 2 C-3 0 -3 0 0 0 Z " fill="#C5E309" transform="translate(154,48)"/>
<path d="M0 0 C0.33 0.99 0.66 1.98 1 3 C1.99 3 2.98 3 4 3 C2.60667426 6.36720387 1.0210714 7.9859524 -2 10 C-2.66 9.67 -3.32 9.34 -4 9 C-3.35455571 5.51460083 -1.89865603 2.97180943 0 0 Z " fill="#A5B525" transform="translate(190,88)"/>
<path d="M0 0 C0.33 0.66 0.66 1.32 1 2 C0.38511719 2.19335938 -0.22976562 2.38671875 -0.86328125 2.5859375 C-2.07564453 2.97652344 -2.07564453 2.97652344 -3.3125 3.375 C-4.51326172 3.75785156 -4.51326172 3.75785156 -5.73828125 4.1484375 C-8.22724528 4.98831811 -8.22724528 4.98831811 -11 7 C-13.32387947 7.39387788 -15.65793749 7.73486085 -18 8 C-13.6286737 2.48832771 -6.69030214 1.07908099 0 0 Z " fill="#889D1E" transform="translate(85,3)"/>
<path d="M0 0 C1.32 0.66 2.64 1.32 4 2 C2.76075855 6.95696581 1.21422242 9.11658466 -3 12 C-3.33 10.68 -3.66 9.36 -4 8 C-2.68 7.67 -1.36 7.34 0 7 C-0.185625 6.401875 -0.37125 5.80375 -0.5625 5.1875 C-1 3 -1 3 0 0 Z " fill="#B7D011" transform="translate(188,64)"/>
<path d="M0 0 C0.5625 1.9375 0.5625 1.9375 1 4 C0.67 4.33 0.34 4.66 0 5 C-0.12375 6.0725 -0.2475 7.145 -0.375 8.25 C-0.99075557 11.94453343 -1.75723834 14.0395546 -4 17 C-4.66 17 -5.32 17 -6 17 C-5.34496718 12.94180817 -4.05440879 9.46028718 -2.4375 5.6875 C-1.75494141 4.08455078 -1.75494141 4.08455078 -1.05859375 2.44921875 C-0.53458984 1.23685547 -0.53458984 1.23685547 0 0 Z " fill="#B8CA24" transform="translate(167,85)"/>
<path d="M0 0 C1.9375 0.375 1.9375 0.375 4 1 C4.33 1.66 4.66 2.32 5 3 C3.63875 3.7734375 3.63875 3.7734375 2.25 4.5625 C-1.51762616 7.03556267 -3.0084148 10.01682961 -5 14 C-5.66 13.67 -6.32 13.34 -7 13 C-6.34 11.68 -5.68 10.36 -5 9 C-4.34 9 -3.68 9 -3 9 C-2.814375 8.1646875 -2.814375 8.1646875 -2.625 7.3125 C-1.94023145 4.77885636 -1.00866237 2.42078968 0 0 Z " fill="#B0C91D" transform="translate(144,72)"/>
<path d="M0 0 C0 0.66 0 1.32 0 2 C-0.99 2.66 -1.98 3.32 -3 4 C-3.72382467 6.05925139 -3.72382467 6.05925139 -4 8 C-4.639375 8.103125 -5.27875 8.20625 -5.9375 8.3125 C-6.9584375 8.6528125 -6.9584375 8.6528125 -8 9 C-8.33 9.99 -8.66 10.98 -9 12 C-9.66 12 -10.32 12 -11 12 C-10.49897679 7.65779887 -7.85962472 5.13196993 -5 2 C-2 0 -2 0 0 0 Z " fill="#91A31B" transform="translate(283,66)"/>
<path d="M0 0 C0 1.32 0 2.64 0 4 C-0.99 4.495 -0.99 4.495 -2 5 C-2 5.66 -2 6.32 -2 7 C-3.32 7 -4.64 7 -6 7 C-6.33 4.69 -6.66 2.38 -7 0 C-2.25 -1.125 -2.25 -1.125 0 0 Z " fill="#C5E205" transform="translate(306,67)"/>
<path d="M0 0 C0.33 2.31 0.66 4.62 1 7 C-0.32 6.67 -1.64 6.34 -3 6 C-3 5.34 -3 4.68 -3 4 C-4.32 3.67 -5.64 3.34 -7 3 C-4.49955934 -0.00052879 -4.2621484 0 0 0 Z " fill="#C6E112" transform="translate(325,69)"/>
<path d="M0 0 C0.66 0.33 1.32 0.66 2 1 C1.67 1.66 1.34 2.32 1 3 C0.34 3 -0.32 3 -1 3 C-1.66 3.66 -2.32 4.32 -3 5 C-5.68839385 5.26991906 -8.29141936 5.08737357 -11 5 C-11 4.34 -11 3.68 -11 3 C-7.29158487 0.16415314 -4.61917038 -0.41059292 0 0 Z " fill="#C5E016" transform="translate(205,61)"/>
<path d="M0 0 C-0.33 1.32 -0.66 2.64 -1 4 C-1.66 4 -2.32 4 -3 4 C-3.33 4.66 -3.66 5.32 -4 6 C-5.32 5.34 -6.64 4.68 -8 4 C-7.25 2.0625 -7.25 2.0625 -6 0 C-3.40292416 -1.05506206 -2.5386068 -1.2693034 0 0 Z " fill="#BAD11C" transform="translate(138,92)"/>
<path d="M0 0 C0.97582031 0.00902344 1.95164062 0.01804687 2.95703125 0.02734375 C3.69308594 0.03894531 4.42914063 0.05054687 5.1875 0.0625 C4.8575 0.7225 4.5275 1.3825 4.1875 2.0625 C1.63808627 2.37491371 -0.81611513 2.57553421 -3.375 2.6875 C-4.44137695 2.74550781 -4.44137695 2.74550781 -5.52929688 2.8046875 C-7.28992425 2.89921783 -9.05117728 2.98195817 -10.8125 3.0625 C-10.8125 2.4025 -10.8125 1.7425 -10.8125 1.0625 C-7.13862505 0.20951624 -3.7677607 -0.04539471 0 0 Z " fill="#A0B61B" transform="translate(334.8125,79.9375)"/>
<path d="M0 0 C2.475 0.495 2.475 0.495 5 1 C5 1.99 5 2.98 5 4 C5.66 4 6.32 4 7 4 C6.67 5.98 6.34 7.96 6 10 C3.25722422 6.80009492 1.3697164 3.99500618 0 0 Z " fill="#ACC316" transform="translate(78,88)"/>
<path d="M0 0 C1.3805087 3.76668598 0.59568159 6.44789173 -0.4375 10.25 C-0.72496094 11.32765625 -1.01242188 12.4053125 -1.30859375 13.515625 C-1.53675781 14.33546875 -1.76492187 15.1553125 -2 16 C-4.23551759 12.64672361 -4.17283528 12.09256343 -3.625 8.3125 C-3.51414063 7.50425781 -3.40328125 6.69601563 -3.2890625 5.86328125 C-3.19367188 5.24839844 -3.09828125 4.63351563 -3 4 C-2.01 3.67 -1.02 3.34 0 3 C0 2.01 0 1.02 0 0 Z " fill="#A2BD16" transform="translate(207,80)"/>
<path d="M0 0 C3.96 0 7.92 0 12 0 C12.33 1.98 12.66 3.96 13 6 C12.67 5.34 12.34 4.68 12 4 C11.34 4 10.68 4 10 4 C9.67 3.34 9.34 2.68 9 2 C6.03 2 3.06 2 0 2 C0 1.34 0 0.68 0 0 Z " fill="#A5BC1B" transform="translate(90,116)"/>
<path d="M0 0 C1.5 1.375 1.5 1.375 3 3 C3 3.66 3 4.32 3 5 C1.02 5.99 1.02 5.99 -1 7 C-1 6.01 -1 5.02 -1 4 C-1.99 4.66 -2.98 5.32 -4 6 C-4.99 6 -5.98 6 -7 6 C-6 3 -6 3 -2.9375 1.3125 C-1.968125 0.879375 -0.99875 0.44625 0 0 Z " fill="#96A61D" transform="translate(176,104)"/>
<path d="M0 0 C0.33 0.66 0.66 1.32 1 2 C1.99 2.33 2.98 2.66 4 3 C2.35 4.65 0.7 6.3 -1 8 C-1.99 7.01 -2.98 6.02 -4 5 C-2.68 3.35 -1.36 1.7 0 0 Z " fill="#90A316" transform="translate(185,95)"/>
<path d="M0 0 C0 3.62875867 -1.22793994 5.01739353 -3.5546875 7.703125 C-5.55721506 9.49998757 -7.35337395 9.84876423 -10 10 C-9.04882866 8.8274869 -8.08882991 7.66212985 -7.125 6.5 C-6.32449219 5.52546875 -6.32449219 5.52546875 -5.5078125 4.53125 C-5.01023438 4.0259375 -4.51265625 3.520625 -4 3 C-3.34 3 -2.68 3 -2 3 C-2 2.34 -2 1.68 -2 1 C-1.34 0.67 -0.68 0.34 0 0 Z " fill="#80931A" transform="translate(184,65)"/>
<path d="M0 0 C0.66 0.33 1.32 0.66 2 1 C1.67 1.66 1.34 2.32 1 3 C2.32 3.33 3.64 3.66 5 4 C4.01 4.33 3.02 4.66 2 5 C3.32 5.66 4.64 6.32 6 7 C3.03 7 0.06 7 -3 7 C-2.34 6.67 -1.68 6.34 -1 6 C-1.33 4.35 -1.66 2.7 -2 1 C-1.34 0.67 -0.68 0.34 0 0 Z " fill="#818F11" transform="translate(294,102)"/>
<path d="M0 0 C-0.66 0.66 -1.32 1.32 -2 2 C-2.99 2 -3.98 2 -5 2 C-4.67 2.99 -4.34 3.98 -4 5 C-4.99 6.485 -4.99 6.485 -6 8 C-6.66 8 -7.32 8 -8 8 C-8 6.68 -8 5.36 -8 4 C-8.66 3.34 -9.32 2.68 -10 2 C-8.71211992 1.46987262 -7.41953322 0.9511671 -6.125 0.4375 C-5.40570313 0.14746094 -4.68640625 -0.14257812 -3.9453125 -0.44140625 C-2 -1 -2 -1 0 0 Z " fill="#A2B51C" transform="translate(199,62)"/>
<path d="M0 0 C0 0.99 0 1.98 0 3 C-3.96 3.66 -7.92 4.32 -12 5 C-7.98293024 0.98293024 -5.6913658 -0.31618699 0 0 Z " fill="#A2B819" transform="translate(401,63)"/>
<path d="M0 0 C1.32 1.32 2.64 2.64 4 4 C3.34 5.32 2.68 6.64 2 8 C1.34 8 0.68 8 0 8 C0 8.99 0 9.98 0 11 C-0.66 11 -1.32 11 -2 11 C-1 3.57142857 -1 3.57142857 0 0 Z " fill="#AFC61B" transform="translate(342,68)"/>
<path d="M0 0 C2.40072955 2.88087546 4.47291037 5.56404834 6 9 C4.68 9 3.36 9 2 9 C-0.5102666 5.2346001 0 4.57469031 0 0 Z " fill="#A3B817" transform="translate(89,90)"/>
<path d="M0 0 C0.66 0 1.32 0 2 0 C1.814375 1.11375 1.62875 2.2275 1.4375 3.375 C0.68319343 6.82568861 0.68319343 6.82568861 2 9 C0.02 9.99 0.02 9.99 -2 11 C-2 8.69 -2 6.38 -2 4 C-1.34 4 -0.68 4 0 4 C0 2.68 0 1.36 0 0 Z " fill="#7B8F14" transform="translate(368,79)"/>
<path d="M0 0 C0.99 0.33 1.98 0.66 3 1 C3 2.32 3 3.64 3 5 C3.99 5 4.98 5 6 5 C6.33 6.98 6.66 8.96 7 11 C6.01 11.495 6.01 11.495 5 12 C4.16180842 10.37750059 3.3295884 8.75191503 2.5 7.125 C2.0359375 6.22007813 1.571875 5.31515625 1.09375 4.3828125 C0 2 0 2 0 0 Z " fill="#A9BD21" transform="translate(72,76)"/>
<path d="M0 0 C-0.56371414 3.26954202 -1.49962266 4.82575883 -4 7 C-4.66 5.02 -5.32 3.04 -6 1 C-3 0 -3 0 0 0 Z " fill="#B9D415" transform="translate(333,66)"/>
<path d="M0 0 C2 2 2 2 2.375 5.375 C2 9 2 9 0 11.4375 C-0.99 12.2109375 -0.99 12.2109375 -2 13 C-2.33 12.34 -2.66 11.68 -3 11 C-2.34 11 -1.68 11 -1 11 C-1.33 9.35 -1.66 7.7 -2 6 C-1.01 6 -0.02 6 1 6 C0.67 4.02 0.34 2.04 0 0 Z " fill="#93A521" transform="translate(172,135)"/>
<path d="M0 0 C0.99 0 1.98 0 3 0 C3 2.31 3 4.62 3 7 C2.34 7 1.68 7 1 7 C1 7.66 1 8.32 1 9 C0.34 9 -0.32 9 -1 9 C-1 8.01 -1 7.02 -1 6 C-0.01 6 0.98 6 2 6 C2 5.34 2 4.68 2 4 C0.68 4 -0.64 4 -2 4 C-2 3.34 -2 2.68 -2 2 C-1.34 2 -0.68 2 0 2 C0 1.34 0 0.68 0 0 Z " fill="#C7E115" transform="translate(168,139)"/>
<path d="M0 0 C0.66 0 1.32 0 2 0 C2.33 1.65 2.66 3.3 3 5 C0.69 5 -1.62 5 -4 5 C-4 4.01 -4 3.02 -4 2 C-2.68 2 -1.36 2 0 2 C0 1.34 0 0.68 0 0 Z " fill="#BED51A" transform="translate(115,106)"/>
<path d="M0 0 C0.66 0.33 1.32 0.66 2 1 C-0.475 5.455 -0.475 5.455 -3 10 C-5 7 -5 7 -6 4 C-5.38125 3.896875 -4.7625 3.79375 -4.125 3.6875 C-1.63473516 3.12474627 -1.63473516 3.12474627 0 0 Z " fill="#A3B71C" transform="translate(392,99)"/>
<path d="M0 0 C0 1.98 0 3.96 0 6 C-0.99 6.495 -0.99 6.495 -2 7 C-2.99 6.01 -3.98 5.02 -5 4 C-4.67 3.01 -4.34 2.02 -4 1 C-2 0 -2 0 0 0 Z " fill="#C4E404" transform="translate(66,37)"/>
<path d="M0 0 C0.79921875 0.00902344 1.5984375 0.01804687 2.421875 0.02734375 C3.02515625 0.03894531 3.6284375 0.05054688 4.25 0.0625 C4.25 0.3925 4.25 0.7225 4.25 1.0625 C2.81656 1.59440541 1.37804633 2.11265258 -0.0625 2.625 C-1.26326172 3.06005859 -1.26326172 3.06005859 -2.48828125 3.50390625 C-4.75 4.0625 -4.75 4.0625 -7.75 3.0625 C-8.08 2.4025 -8.41 1.7425 -8.75 1.0625 C-5.75519083 0.1901588 -3.11424089 -0.04579766 0 0 Z " fill="#C4E012" transform="translate(114.75,15.9375)"/>
<path d="M0 0 C1.65 1.32 3.3 2.64 5 4 C-1.75 7.875 -1.75 7.875 -4 9 C-4 7.68 -4 6.36 -4 5 C-2.68 5 -1.36 5 0 5 C-0.33 4.01 -0.66 3.02 -1 2 C-0.67 1.34 -0.34 0.68 0 0 Z " fill="#99B015" transform="translate(289,106)"/>
<path d="M0 0 C3.3 0 6.6 0 10 0 C7.63707344 2.52588702 6.33537489 3.88820837 3 5 C2.87625 4.360625 2.7525 3.72125 2.625 3.0625 C2.315625 2.0415625 2.315625 2.0415625 2 1 C1.34 0.67 0.68 0.34 0 0 Z " fill="#9CB118" transform="translate(115,105)"/>
<path d="M0 0 C0.66 0.33 1.32 0.66 2 1 C2.0270043 2.45823212 2.04639787 3.91660675 2.0625 5.375 C2.07410156 6.18710938 2.08570313 6.99921875 2.09765625 7.8359375 C2 10 2 10 1 12 C0.34 12 -0.32 12 -1 12 C-0.67 8.04 -0.34 4.08 0 0 Z " fill="#ADC425" transform="translate(252,94)"/>
<path d="M0 0 C0.99 0.495 0.99 0.495 2 1 C2 1.66 2 2.32 2 3 C2.66 3.33 3.32 3.66 4 4 C3.34 6.31 2.68 8.62 2 11 C0 9 0 9 -0.1953125 6.8359375 C-0.17210937 6.02382813 -0.14890625 5.21171875 -0.125 4.375 C-0.10695312 3.55773438 -0.08890625 2.74046875 -0.0703125 1.8984375 C-0.04710937 1.27195313 -0.02390625 0.64546875 0 0 Z " fill="#A4B818" transform="translate(147,52)"/>
<path d="M0 0 C1.65 0.33 3.3 0.66 5 1 C0.25 6.75 0.25 6.75 -2 9 C-2.25 3.375 -2.25 3.375 0 0 Z " fill="#9DB30E" transform="translate(70,13)"/>
<path d="M0 0 C4.82360189 -0.19294408 8.49646738 0.24252386 13 2 C10.58959839 3.53690745 9.49917715 4.09752136 6.640625 3.5390625 C5.85171875 3.23742187 5.0628125 2.93578125 4.25 2.625 C3.45078125 2.32851562 2.6515625 2.03203125 1.828125 1.7265625 C1.22484375 1.48679687 0.6215625 1.24703125 0 1 C0 0.67 0 0.34 0 0 Z " fill="#8A9F11" transform="translate(104,9)"/>
<path d="M0 0 C-0.33 0.99 -0.66 1.98 -1 3 C-4.5625 4.1875 -4.5625 4.1875 -8 5 C-7.625 3.0625 -7.625 3.0625 -7 1 C-4.53721199 -0.231394 -2.7204945 -0.07159196 0 0 Z " fill="#AFC128" transform="translate(335,106)"/>
<path d="M0 0 C0.66 0 1.32 0 2 0 C1.67 3.63 1.34 7.26 1 11 C-1.12508244 7.81237635 -1.5020163 5.73487777 -2 2 C-1.34 2 -0.68 2 0 2 C0 1.34 0 0.68 0 0 Z " fill="#90A21B" transform="translate(417,85)"/>
<path d="M0 0 C0.99 0 1.98 0 3 0 C3.66 1.98 4.32 3.96 5 6 C4.34 6 3.68 6 3 6 C3 5.34 3 4.68 3 4 C2.01 4 1.02 4 0 4 C0 4.66 0 5.32 0 6 C-0.66 5.67 -1.32 5.34 -2 5 C-1.34 3.35 -0.68 1.7 0 0 Z " fill="#AABD11" transform="translate(168,135)"/>
<path d="M0 0 C0.33 0.99 0.66 1.98 1 3 C-2.47823115 4.15941038 -4.45895578 3.70820884 -8 3 C-8 2.34 -8 1.68 -8 1 C-5.07175348 0.02391783 -3.04386724 -0.08226668 0 0 Z " fill="#C4DC19" transform="translate(132,136)"/>
<path d="M0 0 C0.66 0 1.32 0 2 0 C2 0.66 2 1.32 2 2 C4.31 2 6.62 2 9 2 C9.33 2.66 9.66 3.32 10 4 C8.54207116 4.05399736 7.08357288 4.09279177 5.625 4.125 C4.81289062 4.14820312 4.00078125 4.17140625 3.1640625 4.1953125 C1 4 1 4 -1 2 C-0.67 1.34 -0.34 0.68 0 0 Z " fill="#A4C026" transform="translate(198,112)"/>
<path d="M0 0 C0 0.99 0 1.98 0 3 C-3.33333333 6 -3.33333333 6 -6 6 C-5.625 3.5625 -5.625 3.5625 -5 1 C-3 0 -3 0 0 0 Z " fill="#B0C120" transform="translate(406,84)"/>
<path d="M0 0 C0 0.66 0 1.32 0 2 C-1.98 2.99 -1.98 2.99 -4 4 C-4 3.34 -4 2.68 -4 2 C-6.31 2 -8.62 2 -11 2 C-7.50078951 0.05599417 -3.80583038 -1.90291519 0 0 Z " fill="#9EB024" transform="translate(337,64)"/>
<path d="M0 0 C0.66 0.33 1.32 0.66 2 1 C0.1875 3.5 0.1875 3.5 -2 6 C-2.99 6 -3.98 6 -5 6 C-5 6.66 -5 7.32 -5 8 C-5.66 8 -6.32 8 -7 8 C-6.25 6.0625 -6.25 6.0625 -5 4 C-3.67405895 3.63837971 -2.34061543 3.30271961 -1 3 C-0.67 2.01 -0.34 1.02 0 0 Z " fill="#B1C913" transform="translate(370,62)"/>
<path d="M0 0 C0 1.32 0 2.64 0 4 C-2.64 4.33 -5.28 4.66 -8 5 C-7.67 4.34 -7.34 3.68 -7 3 C-6.34 3 -5.68 3 -5 3 C-5 2.34 -5 1.68 -5 1 C-3 0 -3 0 0 0 Z " fill="#C5E010" transform="translate(99,20)"/>
<path d="M0 0 C-0.33 1.32 -0.66 2.64 -1 4 C-3.31 4 -5.62 4 -8 4 C-7.67 3.01 -7.34 2.02 -7 1 C-2.25 0 -2.25 0 0 0 Z " fill="#C6E212" transform="translate(175,108)"/>
<path d="M0 0 C1.15957207 3.47871621 0.77456651 4.34219645 -0.4375 7.6875 C-0.72496094 8.49574219 -1.01242187 9.30398437 -1.30859375 10.13671875 C-1.53675781 10.75160156 -1.76492188 11.36648437 -2 12 C-2.99 11.34 -3.98 10.68 -5 10 C-4.34 8.68 -3.68 7.36 -3 6 C-2.34 6 -1.68 6 -1 6 C-0.67 4.02 -0.34 2.04 0 0 Z " fill="#AABD1E" transform="translate(312,79)"/>
<path d="M0 0 C0.66 0 1.32 0 2 0 C2 0.66 2 1.32 2 2 C2.99 2 3.98 2 5 2 C5 1.34 5 0.68 5 0 C5.66 0.33 6.32 0.66 7 1 C5.35 2.65 3.7 4.3 2 6 C1.67 5.01 1.34 4.02 1 3 C0.01 2.67 -0.98 2.34 -2 2 C-1.34 2 -0.68 2 0 2 C0 1.34 0 0.68 0 0 Z " fill="#818D15" transform="translate(405,81)"/>
<path d="M0 0 C2.50298434 2.93828597 3.46930939 5.17902761 4 9 C3.01 9.495 3.01 9.495 2 10 C2 9.01 2 8.02 2 7 C1.34 7 0.68 7 0 7 C0 4.69 0 2.38 0 0 Z " fill="#9BAE1B" transform="translate(82,76)"/>
<path d="M0 0 C0.99 0.33 1.98 0.66 3 1 C3 2.65 3 4.3 3 6 C2.01 6.33 1.02 6.66 0 7 C-0.66 5.68 -1.32 4.36 -2 3 C-1.34 2.01 -0.68 1.02 0 0 Z " fill="#C3DF16" transform="translate(70,38)"/>
<path d="M0 0 C0.66 0.33 1.32 0.66 2 1 C0.68 3.64 -0.64 6.28 -2 9 C-2.99 9 -3.98 9 -5 9 C-4.3566152 7.686298 -3.71021785 6.37407102 -3.0625 5.0625 C-2.70285156 4.33160156 -2.34320313 3.60070312 -1.97265625 2.84765625 C-1 1 -1 1 0 0 Z " fill="#95A221" transform="translate(355,95)"/>
<path d="M0 0 C1.79616598 1.79616598 2.86491046 3.26734579 4.125 5.4375 C4.47820312 6.03433594 4.83140625 6.63117188 5.1953125 7.24609375 C6 9 6 9 6 12 C2.92307943 9.23077149 1.22199993 6.97149976 0 3 C0 2.01 0 1.02 0 0 Z " fill="#B1C825" transform="translate(228,81)"/>
<path d="M0 0 C2 3 2 3 2 6 C0.35 6 -1.3 6 -3 6 C-2.625 3.5625 -2.625 3.5625 -2 1 C-1.34 0.67 -0.68 0.34 0 0 Z " fill="#C4E402" transform="translate(178,77)"/>
<path d="M0 0 C0.97608217 2.92824652 1.08226668 4.95613276 1 8 C0.01 8.495 0.01 8.495 -1 9 C-1.33 6.36 -1.66 3.72 -2 1 C-1.34 0.67 -0.68 0.34 0 0 Z " fill="#9DB31B" transform="translate(67,56)"/>
<path d="M0 0 C2.475 0.99 2.475 0.99 5 2 C1.67395049 3.10868317 -1.53058454 3.54177532 -5 4 C-5.33 3.34 -5.66 2.68 -6 2 C-4.7934375 1.7834375 -4.7934375 1.7834375 -3.5625 1.5625 C-1.07896294 1.25864751 -1.07896294 1.25864751 0 0 Z " fill="#7A8B0F" transform="translate(150,18)"/>
<path d="M0 0 C0.66 0 1.32 0 2 0 C2.33 1.98 2.66 3.96 3 6 C1.35 5.67 -0.3 5.34 -2 5 C-1.125 1.125 -1.125 1.125 0 0 Z " fill="#BBD321" transform="translate(103,16)"/>
<path d="M0 0 C0.99 0 1.98 0 3 0 C5.1875 2.5 5.1875 2.5 7 5 C6.01 5.495 6.01 5.495 5 6 C5 5.34 5 4.68 5 4 C3.35 4 1.7 4 0 4 C0 2.68 0 1.36 0 0 Z " fill="#B4CB1E" transform="translate(112,122)"/>
<path d="M0 0 C1.485 0.99 1.485 0.99 3 2 C2.34 3.32 1.68 4.64 1 6 C0.67 4.02 0.34 2.04 0 0 Z M-4 6 C-2.35 6 -0.7 6 1 6 C1 6.66 1 7.32 1 8 C-0.32 8.33 -1.64 8.66 -3 9 C-3.33 8.01 -3.66 7.02 -4 6 Z " fill="#8A9E13" transform="translate(108,116)"/>
<path d="M0 0 C0.33 1.32 0.66 2.64 1 4 C2.65 4 4.3 4 6 4 C2.91190305 5.76462683 1.76687864 6 -2 6 C-1.34 4.02 -0.68 2.04 0 0 Z " fill="#AEBA29" transform="translate(347,111)"/>
<path d="M0 0 C0.99 0 1.98 0 3 0 C2.67 0.99 2.34 1.98 2 3 C-0.31 3.33 -2.62 3.66 -5 4 C-4.67 3.01 -4.34 2.02 -4 1 C-2.02 1.495 -2.02 1.495 0 2 C0 1.34 0 0.68 0 0 Z " fill="#8DA024" transform="translate(383,110)"/>
<path d="M0 0 C1.65 0 3.3 0 5 0 C5.33 0.99 5.66 1.98 6 3 C3.69 3.33 1.38 3.66 -1 4 C-0.34 3.34 0.32 2.68 1 2 C0.67 1.34 0.34 0.68 0 0 Z " fill="#76851F" transform="translate(254,105)"/>
<path d="M0 0 C0.99 0 1.98 0 3 0 C4.06775224 1.96466413 5.06553465 3.96855359 6 6 C5.67 6.66 5.34 7.32 5 8 C0 2.25 0 2.25 0 0 Z " fill="#9BAA21" transform="translate(85,100)"/>
<path d="M0 0 C2.475 0.99 2.475 0.99 5 2 C3.25 5.875 3.25 5.875 1 7 C1 5.35 1 3.7 1 2 C0.34 1.67 -0.32 1.34 -1 1 C-0.67 0.67 -0.34 0.34 0 0 Z " fill="#91A113" transform="translate(129,95)"/>
<path d="M0 0 C0.33 0.99 0.66 1.98 1 3 C-0.65 4.32 -2.3 5.64 -4 7 C-4 6.01 -4 5.02 -4 4 C-3.34 4 -2.68 4 -2 4 C-2 3.34 -2 2.68 -2 2 C-2.99 2.33 -3.98 2.66 -5 3 C-5 2.34 -5 1.68 -5 1 C-3.35 0.67 -1.7 0.34 0 0 Z " fill="#B0C817" transform="translate(398,92)"/>
<path d="M0 0 C1.32 0.33 2.64 0.66 4 1 C2.35 3.64 0.7 6.28 -1 9 C-2.07349791 4.70600835 -1.79682816 3.80504787 0 0 Z " fill="#8D9E1E" transform="translate(144,81)"/>
<path d="M0 0 C2.64465038 3.1254959 3.84414715 6.08788267 5 10 C4.34 10 3.68 10 3 10 C0.4606772 6.58168085 -0.3636198 4.24223102 0 0 Z " fill="#B1C621" transform="translate(76,64)"/>
<path d="M0 0 C0.33 0.66 0.66 1.32 1 2 C0.34 2 -0.32 2 -1 2 C-1.33 2.99 -1.66 3.98 -2 5 C-4.5625 6.1875 -4.5625 6.1875 -7 7 C-3.375 1.125 -3.375 1.125 0 0 Z " fill="#B6CC23" transform="translate(69,10)"/>
<path d="M0 0 C2.9375 1.3125 2.9375 1.3125 6 3 C6.33 3.99 6.66 4.98 7 6 C6.34 6 5.68 6 5 6 C5 5.34 5 4.68 5 4 C2.03 3.505 2.03 3.505 -1 3 C-0.67 2.01 -0.34 1.02 0 0 Z " fill="#A1B624" transform="translate(62,104)"/>
<path d="M0 0 C0.1875 2.375 0.1875 2.375 0 5 C-0.99 5.66 -1.98 6.32 -3 7 C-3 6.01 -3 5.02 -3 4 C-3.66 3.67 -4.32 3.34 -5 3 C-2.25 0 -2.25 0 0 0 Z " fill="#67771D" transform="translate(223,99)"/>
<path d="M0 0 C0.99 0.33 1.98 0.66 3 1 C2.67 2.32 2.34 3.64 2 5 C0.35 5 -1.3 5 -3 5 C-2.01 3.35 -1.02 1.7 0 0 Z " fill="#9AAB2B" transform="translate(345,93)"/>
<path d="M0 0 C0.66 0.33 1.32 0.66 2 1 C1.67 3.31 1.34 5.62 1 8 C-0.32 8.33 -1.64 8.66 -3 9 C-2.01 6.03 -1.02 3.06 0 0 Z " fill="#A1B718" transform="translate(358,86)"/>
<path d="M0 0 C2.31 0.33 4.62 0.66 7 1 C3.375 4 3.375 4 0 4 C0 2.68 0 1.36 0 0 Z " fill="#C7E317" transform="translate(46,73)"/>
<path d="M0 0 C2.25245881 2.68841859 3.88213958 4.64641875 5 8 C3.68 7.67 2.36 7.34 1 7 C0.67 4.69 0.34 2.38 0 0 Z " fill="#9FB220" transform="translate(147,26)"/>
<path d="M0 0 C0 0.99 0 1.98 0 3 C-1.98 3 -3.96 3 -6 3 C-6 2.01 -6 1.02 -6 0 C-3.50907189 -1.24546405 -2.58919267 -0.7767578 0 0 Z " fill="#C2E203" transform="translate(267,114)"/>
<path d="M0 0 C0 0.66 0 1.32 0 2 C-0.66 2 -1.32 2 -2 2 C-2 2.66 -2 3.32 -2 4 C-3.32 4.33 -4.64 4.66 -6 5 C-5.67 4.01 -5.34 3.02 -5 2 C-5.66 1.67 -6.32 1.34 -7 1 C-2.25 0 -2.25 0 0 0 Z " fill="#9EAF28" transform="translate(326,110)"/>
<path d="M0 0 C0 1.65 0 3.3 0 5 C-0.33 4.34 -0.66 3.68 -1 3 C-2.98 3.33 -4.96 3.66 -7 4 C-3.375 0 -3.375 0 0 0 Z " fill="#A1B21D" transform="translate(130,97)"/>
<path d="M0 0 C0.99 0.33 1.98 0.66 3 1 C3.33 2.98 3.66 4.96 4 7 C3.01 6.67 2.02 6.34 1 6 C0.67 4.02 0.34 2.04 0 0 Z " fill="#A7C219" transform="translate(59,40)"/>
<path d="M0 0 C1.67542976 0.28604898 3.34385343 0.61781233 5 1 C3.68 2.32 2.36 3.64 1 5 C0.34 3.68 -0.32 2.36 -1 1 C-0.67 0.67 -0.34 0.34 0 0 Z " fill="#9BBE0F" transform="translate(87,27)"/>
</svg>
