<?xml version="1.0" encoding="UTF-8" standalone="no"?>
<!-- Created with Inkscape (http://www.inkscape.org/) -->

<svg
   version="1.1"
   id="svg1"
   width="160"
   height="36"
   viewBox="0 0 160 36"
   sodipodi:docname="WhatsAppButtonWhiteSmall.eps"
   xmlns:inkscape="http://www.inkscape.org/namespaces/inkscape"
   xmlns:sodipodi="http://sodipodi.sourceforge.net/DTD/sodipodi-0.dtd"
   xmlns="http://www.w3.org/2000/svg"
   xmlns:svg="http://www.w3.org/2000/svg">
  <defs
     id="defs1" />
  <sodipodi:namedview
     id="namedview1"
     pagecolor="#ffffff"
     bordercolor="#000000"
     borderopacity="0.25"
     inkscape:showpageshadow="2"
     inkscape:pageopacity="0.0"
     inkscape:pagecheckerboard="0"
     inkscape:deskcolor="#d1d1d1">
    <inkscape:page
       x="0"
       y="0"
       inkscape:label="1"
       id="page1"
       width="160"
       height="36"
       margin="0"
       bleed="0" />
  </sodipodi:namedview>
  <g
     id="g1"
     inkscape:groupmode="layer"
     inkscape:label="1">
    <path
       id="path1"
       d="m 60,270 h 1080 c 33.24,0 60,-26.762 60,-60 V 60 C 1200,26.7617 1173.24,0 1140,0 H 60 C 26.7617,0 0,26.7617 0,60 v 150 c 0,33.238 26.7617,60 60,60 z"
       style="fill:#ffffff;fill-opacity:1;fill-rule:nonzero;stroke:none"
       transform="matrix(0.13333333,0,0,-0.13333333,0,36)" />
    <path
       id="path2"
       d="m 163.398,204.059 c 18.161,-0.079 35.661,-7.18 48.75,-19.758 13.403,-12.852 21.133,-30.082 21.832,-48.641 0.668,-18.121 -5.699,-35.9295 -17.691,-49.5311 -13.168,-14.918 -31.488,-23.5078 -51.25,-24.0586 -0.699,-0.039 -1.367,-0.039 -2.027,-0.039 -10.672,0 -21.211,2.4179 -30.782,6.9882 L 95.0391,60.7813 c -0.0391,0 -0.0782,0 -0.1172,0 -0.3125,0 -0.5821,0.2695 -0.5117,0.5898 l 6.2498,37.6094 c -5.3514,9.7695 -8.3202,20.8205 -8.6717,32.0395 -0.5391,18.98 6.332,36.992 19.3827,50.781 13.469,14.328 31.949,22.258 51.68,22.258 z m -0.386,-12.297 c -0.551,0 -1.133,0 -1.684,-0.043 -32.379,-0.899 -57.93,-28.008 -56.988,-60.348 0.269,-9.891 3.039,-19.57 8.039,-28.051 l 1.062,-1.84 -4.652,-25.4995 25.231,5.9687 1.921,-1.0078 c 8.321,-4.3008 17.649,-6.5625 27.071,-6.5625 0.539,0 1.09,0 1.679,0 32.34,0.9297 57.93,28.0001 56.989,60.3511 -0.942,31.79 -27.071,57.032 -58.668,57.032 z M 138.48,167.379 c 1.168,-0.039 2.379,-0.078 3.399,-0.149 1.281,-0.121 2.652,-0.199 3.902,-3.21 1.489,-3.59 4.688,-12.5 5.117,-13.43 0.391,-0.899 0.661,-1.961 0.043,-3.129 -0.632,-1.172 -0.941,-1.871 -1.882,-2.891 -0.938,-1.019 -1.95,-2.269 -2.77,-3.05 -0.937,-0.86 -1.879,-1.79 -0.898,-3.629 0.98,-1.801 4.379,-7.77 9.531,-12.661 6.637,-6.281 11.957,-8.351 14.058,-9.332 0.75,-0.347 1.372,-0.507 1.961,-0.507 0.739,0 1.36,0.308 1.911,0.898 1.128,1.133 4.449,5 5.859,6.801 0.738,0.93 1.41,1.289 2.148,1.289 0.59,0 1.172,-0.238 1.911,-0.508 1.609,-0.633 10.242,-5.242 12,-6.172 1.75,-0.937 2.929,-1.449 3.351,-2.187 0.399,-0.742 0.32,-4.34 -1.32,-8.442 -1.602,-4.14 -8.992,-7.9294 -12.27,-8.1208 -0.98,-0.039 -1.91,-0.1992 -3.121,-0.1992 -2.969,0 -7.621,0.7813 -18.129,5.309 -17.89,7.703 -28.75,26.64 -29.609,27.851 -0.863,1.211 -6.992,9.93 -6.723,18.68 0.281,8.789 5,12.961 6.68,14.68 1.641,1.679 3.48,2.109 4.691,2.109 z"
       style="fill:#103928;fill-opacity:1;fill-rule:evenodd;stroke:none"
       transform="matrix(0.13333333,0,0,-0.13333333,0,36)" />
    <path
       id="path3"
       d="m 352.301,140.16 h 13.679 c -0.429,3.711 -1.449,7.031 -3.05,9.918 -1.641,2.852 -3.711,5.274 -6.211,7.192 -2.457,1.992 -5.27,3.468 -8.481,4.492 -3.117,1.008 -6.437,1.519 -9.957,1.519 -4.922,0 -9.371,-0.859 -13.32,-2.621 -3.91,-1.711 -7.231,-4.14 -9.922,-7.18 -2.699,-3.05 -4.769,-6.64 -6.211,-10.781 -1.449,-4.109 -2.148,-8.558 -2.148,-13.32 0,-4.688 0.699,-9.07 2.148,-13.168 1.442,-4.02 3.512,-7.539 6.211,-10.512 2.691,-3 6.012,-5.39 9.922,-7.1092 3.949,-1.6796 8.398,-2.539 13.32,-2.539 3.949,0 7.578,0.5898 10.86,1.8008 3.32,1.207 6.168,2.9294 8.629,5.2384 2.46,2.262 4.46,5.031 5.98,8.281 1.48,3.238 2.422,6.867 2.77,10.899 h -13.668 c -0.551,-4.34 -2.032,-7.821 -4.493,-10.469 -2.418,-2.621 -5.781,-3.949 -10.078,-3.949 -3.203,0 -5.902,0.589 -8.121,1.796 -2.23,1.25 -4.031,2.93 -5.39,4.961 -1.372,2.032 -2.43,4.301 -3.051,6.84 -0.629,2.571 -0.899,5.192 -0.899,7.93 0,2.812 0.27,5.543 0.899,8.16 0.621,2.66 1.679,5 3.051,7.031 1.359,2.11 3.16,3.75 5.39,4.961 2.219,1.25 4.918,1.879 8.121,1.879 1.719,0 3.36,-0.32 4.918,-0.898 1.641,-0.551 3.09,-1.332 4.34,-2.352 1.25,-1.012 2.301,-2.219 3.121,-3.59 0.86,-1.332 1.41,-2.769 1.641,-4.41 z m 22.5,21.602 V 97.5 h 12.82 v 24.379 c 0,4.762 0.777,8.16 2.301,10.191 1.558,2.071 4.098,3.129 7.578,3.129 3.051,0 5.199,-0.937 6.41,-2.859 1.168,-1.871 1.789,-4.719 1.789,-8.551 V 97.5 h 12.781 v 28.629 c 0,2.851 -0.281,5.473 -0.82,7.82 -0.469,2.422 -1.332,4.41 -2.621,6.012 -1.25,1.68 -3.008,3.008 -5.199,3.91 -2.18,0.93 -4.961,1.399 -8.391,1.399 -2.39,0 -4.847,-0.622 -7.39,-1.872 -2.5,-1.207 -4.571,-3.168 -6.207,-5.859 h -0.231 v 24.223 z m 52.82,-32.032 c 0.188,3 0.93,5.469 2.258,7.461 1.332,1.989 3.012,3.547 5.043,4.758 2.027,1.211 4.34,2.031 6.84,2.539 2.578,0.551 5.148,0.782 7.726,0.782 2.352,0 4.731,-0.149 7.114,-0.5 2.418,-0.321 4.609,-0.942 6.558,-1.918 2,-0.942 3.641,-2.301 4.891,-4.024 1.25,-1.68 1.871,-3.949 1.871,-6.758 v -24.218 c 0,-2.114 0.117,-4.102 0.348,-6.012 0.281,-1.9611 0.671,-3.3595 1.289,-4.34 H 458.59 c -0.231,0.6992 -0.469,1.4492 -0.621,2.1484 -0.117,0.7816 -0.239,1.5626 -0.27,2.3396 -2.039,-2.1091 -4.461,-3.5466 -7.187,-4.4099 -2.782,-0.8164 -5.59,-1.25 -8.481,-1.25 -2.23,0 -4.301,0.2735 -6.211,0.8203 -1.91,0.5508 -3.59,1.3711 -5.039,2.5 -1.441,1.1326 -2.582,2.5816 -3.441,4.3316 -0.781,1.719 -1.168,3.79 -1.168,6.219 0,2.61 0.469,4.801 1.367,6.481 0.981,1.718 2.152,3.121 3.59,4.14 1.531,1.02 3.211,1.758 5.043,2.231 1.918,0.539 3.867,0.969 5.777,1.289 1.922,0.269 3.789,0.5 5.672,0.699 1.828,0.191 3.508,0.473 4.957,0.82 1.402,0.352 2.582,0.86 3.402,1.52 0.86,0.711 1.25,1.723 1.168,3.051 0,1.41 -0.238,2.461 -0.699,3.242 -0.429,0.859 -1.019,1.488 -1.801,1.918 -0.738,0.461 -1.597,0.781 -2.617,0.89 -0.98,0.161 -2.031,0.282 -3.16,0.282 -2.5,0 -4.492,-0.551 -5.941,-1.641 -1.45,-1.101 -2.27,-2.891 -2.5,-5.391 z m 29.527,-9.46 c -0.546,-0.469 -1.207,-0.86 -2.07,-1.168 -0.777,-0.231 -1.637,-0.473 -2.617,-0.622 -0.902,-0.199 -1.84,-0.359 -2.852,-0.468 -1.058,-0.121 -2.07,-0.282 -3.089,-0.434 -0.93,-0.199 -1.911,-0.43 -2.891,-0.738 -0.899,-0.281 -1.68,-0.711 -2.418,-1.25 -0.66,-0.469 -1.172,-1.102 -1.602,-1.879 -0.429,-0.781 -0.629,-1.801 -0.629,-2.973 0,-1.129 0.2,-2.109 0.629,-2.886 0.43,-0.782 0.981,-1.403 1.719,-1.872 0.703,-0.429 1.524,-0.75 2.5,-0.902 0.973,-0.199 1.953,-0.277 2.973,-0.277 2.539,0 4.488,0.398 5.859,1.25 1.36,0.828 2.379,1.84 3.039,2.969 0.672,1.21 1.063,2.39 1.18,3.601 0.191,1.207 0.269,2.149 0.269,2.891 z m 38.903,23.75 v 13.949 h -12.77 V 144.02 h -7.73 v -8.551 h 7.73 v -27.418 c 0,-2.352 0.391,-4.262 1.168,-5.711 0.781,-1.399 1.84,-2.5392 3.129,-3.3205 1.402,-0.7812 2.973,-1.289 4.692,-1.5195 1.789,-0.3086 3.71,-0.4687 5.66,-0.4687 1.289,0 2.582,0.039 3.871,0.1171 1.32,0.043 2.539,0.1524 3.59,0.3516 v 9.879 c -0.59,-0.109 -1.211,-0.188 -1.871,-0.231 -0.668,-0.078 -1.329,-0.117 -2.071,-0.117 -2.148,0 -3.597,0.348 -4.301,1.09 -0.738,0.707 -1.097,2.149 -1.097,4.301 v 23.047 h 9.34 v 8.551 z m 51.84,-23.321 c 0,1.879 0.16,3.711 0.55,5.512 0.348,1.801 0.938,3.398 1.789,4.769 0.899,1.36 2.071,2.5 3.481,3.321 1.449,0.898 3.238,1.359 5.43,1.359 2.148,0 3.949,-0.461 5.39,-1.359 1.489,-0.821 2.66,-1.961 3.52,-3.321 0.898,-1.371 1.519,-2.968 1.871,-4.769 0.348,-1.801 0.547,-3.633 0.547,-5.512 0,-1.828 -0.199,-3.668 -0.547,-5.469 -0.352,-1.75 -0.973,-3.32 -1.871,-4.761 -0.86,-1.41 -2.031,-2.5 -3.52,-3.321 -1.441,-0.859 -3.242,-1.289 -5.39,-1.289 -2.192,0 -3.981,0.43 -5.43,1.289 -1.41,0.821 -2.582,1.911 -3.481,3.321 -0.851,1.441 -1.441,3.011 -1.789,4.761 -0.39,1.801 -0.55,3.641 -0.55,5.469 z m -12.77,0 c 0,-3.711 0.539,-7.07 1.68,-10.078 1.168,-2.961 2.769,-5.543 4.879,-7.73 2.07,-2.11 4.609,-3.7113 7.539,-4.8402 2.972,-1.1406 6.25,-1.7227 9.922,-1.7227 3.629,0 6.949,0.5821 9.879,1.7227 3.011,1.1289 5.55,2.7302 7.66,4.8402 2.109,2.187 3.711,4.769 4.84,7.73 1.179,3.008 1.718,6.367 1.718,10.078 0,3.75 -0.539,7.11 -1.718,10.082 -1.129,3.09 -2.731,5.668 -4.84,7.77 -2.11,2.148 -4.649,3.789 -7.66,4.929 -2.93,1.211 -6.25,1.79 -9.879,1.79 -3.672,0 -6.95,-0.579 -9.922,-1.79 -2.93,-1.14 -5.469,-2.781 -7.539,-4.929 -2.11,-2.102 -3.711,-4.68 -4.879,-7.77 -1.141,-2.972 -1.68,-6.332 -1.68,-10.082 z m 56.438,23.321 V 97.5 h 12.781 v 24.379 c 0,4.762 0.781,8.16 2.34,10.191 1.558,2.071 4.058,3.129 7.582,3.129 3.039,0 5.148,-0.937 6.359,-2.859 1.219,-1.871 1.801,-4.719 1.801,-8.551 V 97.5 h 12.777 v 28.629 c 0,2.851 -0.277,5.473 -0.789,7.82 -0.5,2.422 -1.359,4.41 -2.609,6.012 -1.25,1.68 -3.012,3.008 -5.242,3.91 -2.149,0.93 -4.957,1.399 -8.36,1.399 -2.687,0 -5.347,-0.622 -7.929,-1.872 -2.571,-1.207 -4.68,-3.168 -6.29,-5.859 h -0.269 v 6.481 z M 732.5,97.5 l 17.301,64.262 h -13.86 l -10.55,-44.301 h -0.161 l -11.011,44.301 H 701.02 l -11.18,-43.75 h -0.192 l -10.16,43.75 H 665.352 L 682.379,97.5 h 14.301 l 10.699,43.75 h 0.199 L 718.48,97.5 Z m 22.461,64.262 V 97.5 h 12.769 v 24.379 c 0,4.762 0.79,8.16 2.348,10.191 1.563,2.071 4.063,3.129 7.543,3.129 3.078,0 5.188,-0.937 6.399,-2.859 1.21,-1.871 1.8,-4.719 1.8,-8.551 V 97.5 h 12.77 v 28.629 c 0,2.851 -0.27,5.473 -0.82,7.82 -0.469,2.422 -1.321,4.41 -2.571,6.012 -1.289,1.68 -3.008,3.008 -5.238,3.91 -2.152,0.93 -4.961,1.399 -8.359,1.399 -2.422,0 -4.883,-0.622 -7.383,-1.872 -2.539,-1.207 -4.61,-3.168 -6.207,-5.859 h -0.282 v 24.223 z M 807.77,129.73 c 0.16,3 0.902,5.469 2.23,7.461 1.328,1.989 3.012,3.547 5.039,4.758 2.031,1.211 4.34,2.031 6.84,2.539 2.57,0.551 5.152,0.782 7.73,0.782 2.34,0 4.731,-0.149 7.11,-0.5 2.422,-0.321 4.609,-0.942 6.601,-1.918 1.95,-0.942 3.59,-2.301 4.84,-4.024 1.25,-1.68 1.879,-3.949 1.879,-6.758 v -24.218 c 0,-2.114 0.16,-4.102 0.391,-6.012 0.23,-1.9611 0.66,-3.3595 1.25,-4.34 h -12.969 c -0.231,0.6992 -0.43,1.4492 -0.621,2.1484 -0.121,0.7816 -0.199,1.5626 -0.281,2.3396 -2.028,-2.1091 -4.45,-3.5466 -7.188,-4.4099 -2.769,-0.8164 -5.582,-1.25 -8.473,-1.25 -2.226,0 -4.296,0.2735 -6.207,0.8203 -1.921,0.5508 -3.601,1.3711 -5.043,2.5 -1.449,1.1326 -2.578,2.5816 -3.398,4.3316 -0.781,1.719 -1.172,3.79 -1.172,6.219 0,2.61 0.434,4.801 1.332,6.481 0.969,1.718 2.18,3.121 3.59,4.14 1.52,1.02 3.199,1.758 5.039,2.231 1.949,0.539 3.871,0.969 5.781,1.289 1.91,0.269 3.789,0.5 5.66,0.699 1.879,0.191 3.52,0.473 4.969,0.82 1.442,0.352 2.571,0.86 3.391,1.52 0.859,0.711 1.25,1.723 1.18,3.051 0,1.41 -0.239,2.461 -0.711,3.242 -0.43,0.859 -1.008,1.488 -1.789,1.918 -0.75,0.461 -1.61,0.781 -2.622,0.89 -0.976,0.161 -1.988,0.282 -3.168,0.282 -2.5,0 -4.492,-0.551 -5.929,-1.641 -1.449,-1.101 -2.27,-2.891 -2.5,-5.391 z m 29.5,-9.46 c -0.551,-0.469 -1.219,-0.86 -2.071,-1.168 -0.789,-0.231 -1.648,-0.473 -2.621,-0.622 -0.898,-0.199 -1.84,-0.359 -2.848,-0.468 -1.019,-0.121 -2.031,-0.282 -3.089,-0.434 -0.942,-0.199 -1.911,-0.43 -2.852,-0.738 -0.898,-0.281 -1.719,-0.711 -2.461,-1.25 -0.629,-0.469 -1.168,-1.102 -1.598,-1.879 -0.429,-0.781 -0.628,-1.801 -0.628,-2.973 0,-1.129 0.199,-2.109 0.628,-2.886 0.43,-0.782 0.969,-1.403 1.719,-1.872 0.699,-0.429 1.563,-0.75 2.5,-0.902 0.973,-0.199 1.949,-0.277 2.961,-0.277 2.539,0 4.5,0.398 5.86,1.25 1.371,0.828 2.429,1.84 3.05,2.969 0.66,1.21 1.059,2.39 1.168,3.601 0.203,1.207 0.282,2.149 0.282,2.891 z m 38.902,23.75 v 13.949 H 863.398 V 144.02 h -7.738 v -8.551 h 7.738 v -27.418 c 0,-2.352 0.391,-4.262 1.172,-5.711 0.782,-1.399 1.84,-2.5392 3.16,-3.3205 1.372,-0.7812 2.93,-1.289 4.649,-1.5195 1.84,-0.3086 3.711,-0.4687 5.711,-0.4687 1.25,0 2.531,0.039 3.859,0.1171 1.289,0.043 2.5,0.1524 3.602,0.3516 v 9.879 c -0.629,-0.109 -1.25,-0.188 -1.922,-0.231 -0.617,-0.078 -1.328,-0.117 -2.07,-0.117 -2.149,0 -3.59,0.348 -4.289,1.09 -0.75,0.707 -1.098,2.149 -1.098,4.301 v 23.047 h 9.379 v 8.551 z m 25.348,-31.399 h -12.141 c 0.109,-3.133 0.781,-5.742 2.07,-7.82 1.321,-2.071 2.961,-3.711 4.922,-4.9612 2.07,-1.25 4.367,-2.1406 6.949,-2.6914 2.578,-0.5468 5.2,-0.8203 7.93,-0.8203 2.621,0 5.199,0.2735 7.73,0.8203 2.579,0.4727 4.848,1.3321 6.84,2.6211 1.989,1.2505 3.559,2.8905 4.77,4.9215 1.25,2.11 1.871,4.688 1.871,7.731 0,2.187 -0.391,3.988 -1.25,5.43 -0.82,1.488 -1.949,2.738 -3.32,3.668 -1.371,1.019 -2.969,1.839 -4.77,2.429 -1.75,0.621 -3.551,1.129 -5.391,1.563 -1.832,0.386 -3.589,0.777 -5.308,1.129 -1.762,0.39 -3.32,0.781 -4.692,1.168 -1.32,0.511 -2.421,1.101 -3.242,1.839 -0.859,0.704 -1.25,1.641 -1.25,2.774 0,0.976 0.242,1.719 0.711,2.269 0.461,0.579 1.051,1.008 1.711,1.329 0.711,0.308 1.488,0.46 2.352,0.539 0.816,0.121 1.597,0.203 2.34,0.203 2.269,0 4.257,-0.473 5.937,-1.371 1.68,-0.86 2.582,-2.5 2.77,-4.961 h 12.152 c -0.231,2.89 -0.981,5.269 -2.231,7.109 -1.21,1.91 -2.73,3.481 -4.601,4.609 -1.879,1.133 -3.988,1.954 -6.41,2.422 -2.309,0.469 -4.77,0.7 -7.27,0.7 -2.539,0 -5,-0.231 -7.379,-0.7 -2.422,-0.429 -4.57,-1.211 -6.48,-2.34 -1.918,-1.101 -3.481,-2.582 -4.692,-4.5 -1.128,-1.91 -1.718,-4.371 -1.718,-7.378 0,-2.032 0.429,-3.793 1.289,-5.231 0.82,-1.371 1.953,-2.543 3.32,-3.519 1.371,-0.903 2.93,-1.641 4.691,-2.223 1.79,-0.551 3.629,-1.02 5.469,-1.449 4.571,-0.981 8.121,-1.91 10.621,-2.891 2.578,-0.937 3.871,-2.379 3.871,-4.301 0,-1.129 -0.281,-2.109 -0.82,-2.886 -0.512,-0.704 -1.211,-1.332 -2.07,-1.801 -0.781,-0.43 -1.68,-0.742 -2.699,-0.973 -0.942,-0.199 -1.872,-0.277 -2.774,-0.277 -1.25,0 -2.5,0.121 -3.707,0.429 -1.141,0.321 -2.152,0.75 -3.051,1.372 -0.898,0.668 -1.64,1.449 -2.23,2.418 -0.539,1.019 -0.82,2.23 -0.82,3.601 z m 55.98,9.719 8.398,23.601 h 0.153 l 8.09,-23.601 z m 1.371,39.422 L 934.57,97.5 h 14.219 l 5.039,14.301 h 24.024 L 982.699,97.5 h 14.68 l -24.02,64.262 z m 66.209,-55.903 c -2.07,0 -3.79,0.43 -5.24,1.289 -1.44,0.821 -2.61,1.911 -3.51,3.204 -0.82,1.41 -1.49,3.007 -1.88,4.808 -0.35,1.789 -0.54,3.629 -0.54,5.461 0,1.918 0.19,3.789 0.54,5.59 0.35,1.801 0.94,3.398 1.8,4.769 0.9,1.36 2.03,2.5 3.4,3.321 1.44,0.898 3.24,1.359 5.31,1.359 2.07,0 3.75,-0.461 5.16,-1.359 1.4,-0.821 2.58,-1.961 3.47,-3.403 0.94,-1.41 1.57,-2.968 1.92,-4.769 0.43,-1.789 0.62,-3.629 0.62,-5.508 0,-1.832 -0.19,-3.672 -0.54,-5.461 -0.36,-1.801 -0.98,-3.398 -1.88,-4.808 -0.86,-1.293 -1.99,-2.383 -3.44,-3.204 -1.36,-0.859 -3.12,-1.289 -5.19,-1.289 z m -23.52,38.161 V 81.2109 h 12.78 v 22.0271 h 0.19 c 1.56,-2.258 3.56,-3.9763 5.94,-5.1872 2.46,-1.1406 5.12,-1.7227 8.01,-1.7227 3.43,0 6.4,0.6602 8.9,1.9922 2.58,1.3281 4.73,3.0897 6.41,5.3087 1.72,2.23 3.01,4.769 3.87,7.66 0.82,2.852 1.25,5.859 1.25,8.981 0,3.281 -0.43,6.449 -1.25,9.46 -0.86,3.04 -2.15,5.739 -3.87,8 -1.76,2.27 -3.95,4.11 -6.56,5.469 -2.66,1.41 -5.82,2.071 -9.46,2.071 -2.89,0 -5.54,-0.54 -7.93,-1.68 -2.38,-1.168 -4.37,-2.969 -5.93,-5.5 h -0.2 v 5.93 z m 78.52,-38.161 c -2.03,0 -3.79,0.43 -5.24,1.289 -1.44,0.821 -2.61,1.911 -3.51,3.204 -0.82,1.41 -1.45,3.007 -1.88,4.808 -0.35,1.789 -0.54,3.629 -0.54,5.461 0,1.918 0.19,3.789 0.54,5.59 0.35,1.801 0.98,3.398 1.8,4.769 0.9,1.36 2.03,2.5 3.44,3.321 1.44,0.898 3.2,1.359 5.31,1.359 2.03,0 3.75,-0.461 5.12,-1.359 1.44,-0.821 2.61,-1.961 3.51,-3.403 0.9,-1.41 1.53,-2.968 1.88,-4.769 0.43,-1.789 0.62,-3.629 0.62,-5.508 0,-1.832 -0.15,-3.672 -0.54,-5.461 -0.36,-1.801 -0.98,-3.398 -1.88,-4.808 -0.82,-1.293 -1.99,-2.383 -3.4,-3.204 -1.4,-0.859 -3.12,-1.289 -5.23,-1.289 z M 1056.6,144.02 V 81.2109 h 12.78 v 22.0271 h 0.15 c 1.56,-2.258 3.56,-3.9763 5.94,-5.1872 2.46,-1.1406 5.15,-1.7227 8.01,-1.7227 3.43,0 6.4,0.6602 8.94,1.9922 2.58,1.3281 4.69,3.0897 6.37,5.3087 1.76,2.23 3.05,4.769 3.87,7.66 0.86,2.852 1.25,5.859 1.25,8.981 0,3.281 -0.39,6.449 -1.25,9.46 -0.82,3.04 -2.11,5.739 -3.87,8 -1.72,2.27 -3.91,4.11 -6.56,5.469 -2.66,1.41 -5.78,2.071 -9.46,2.071 -2.89,0 -5.5,-0.54 -7.93,-1.68 -2.38,-1.168 -4.37,-2.969 -5.93,-5.5 h -0.16 v 5.93 z"
       style="fill:#103928;fill-opacity:1;fill-rule:nonzero;stroke:none"
       transform="matrix(0.13333333,0,0,-0.13333333,0,36)" />
  </g>
</svg>
